<?xml version="1.0" encoding="UTF-8" ?>
<!DOCTYPE svg PUBLIC "-//W3C//DTD SVG 1.1//EN" "http://www.w3.org/Graphics/SVG/1.1/DTD/svg11.dtd">
<svg width="526pt" height="140pt" viewBox="0 0 526 140" version="1.1" xmlns="http://www.w3.org/2000/svg">
<g id="#000000ff">
<path fill="#000000" opacity="1.00" d=" M 135.49 0.00 L 159.32 0.00 C 156.76 18.77 154.94 37.64 151.86 56.33 C 154.49 49.78 158.36 43.51 164.04 39.18 C 170.65 34.25 180.03 34.14 187.29 37.69 C 193.71 41.03 196.92 48.19 198.34 54.96 C 200.53 66.57 198.70 78.88 193.39 89.41 C 187.78 100.16 178.01 109.02 166.25 112.42 C 155.59 115.61 144.02 115.11 133.50 111.60 C 128.90 111.03 124.38 113.02 119.81 113.45 C 125.02 75.63 130.18 37.81 135.49 0.00 M 160.27 56.36 C 156.00 61.61 153.32 67.94 151.09 74.28 C 147.64 82.32 147.84 91.26 146.38 99.76 C 152.79 101.17 159.96 99.43 164.30 94.31 C 171.42 86.06 173.29 74.60 173.23 64.03 C 172.86 59.94 172.73 54.67 168.67 52.39 C 165.29 51.48 162.29 53.93 160.27 56.36 Z" />
<path fill="#000000" opacity="1.00" d=" M 34.29 8.26 C 42.46 8.24 50.62 8.24 58.79 8.26 C 54.00 39.56 49.75 70.95 45.10 102.27 C 43.40 112.37 40.06 123.03 31.94 129.83 C 23.96 136.66 13.23 138.81 3.04 139.54 C 2.02 136.80 0.96 134.07 0.00 131.31 L 0.00 131.30 C 10.41 128.69 17.69 119.19 19.64 108.94 C 26.28 75.66 29.54 41.83 34.29 8.26 Z" />
<path fill="#000000" opacity="1.00" d=" M 91.34 35.36 C 99.35 34.82 108.16 36.08 114.28 41.72 C 121.73 48.19 124.20 58.53 124.21 68.03 C 124.11 81.12 119.86 94.94 109.82 103.83 C 103.60 109.64 95.48 113.28 87.01 114.16 C 78.48 115.14 68.92 114.63 62.05 108.87 C 53.80 102.28 50.99 91.14 51.24 81.00 C 51.46 67.81 56.05 53.98 66.39 45.29 C 73.21 39.13 82.24 35.87 91.34 35.36 M 89.34 50.63 C 85.03 51.81 82.41 55.87 80.61 59.67 C 76.40 69.12 75.34 79.72 76.19 89.95 C 76.65 93.34 77.50 97.39 80.81 99.11 C 85.17 100.88 90.16 98.38 92.57 94.61 C 97.60 87.09 98.83 77.77 99.32 68.93 C 99.37 63.81 99.60 58.34 97.31 53.61 C 96.00 50.61 92.27 49.67 89.34 50.63 Z" />
<path fill="#000000" opacity="1.00" d=" M 206.96 43.88 C 212.02 38.85 219.17 36.78 226.06 35.85 C 234.66 34.86 243.41 35.77 251.76 37.95 C 250.94 44.80 249.95 51.64 249.14 58.50 C 243.10 53.97 234.99 51.25 227.55 53.46 C 223.66 54.59 222.82 59.82 225.66 62.46 C 231.46 67.98 238.38 72.24 244.04 77.93 C 250.54 84.49 250.93 95.48 246.30 103.18 C 241.65 110.52 232.68 113.39 224.50 114.44 C 214.11 115.45 203.18 114.61 193.61 110.17 C 194.83 103.75 196.27 97.37 197.52 90.96 C 204.33 94.76 212.06 98.29 220.05 97.05 C 222.48 96.66 225.70 95.86 226.19 92.99 C 227.12 88.69 222.87 86.19 220.06 83.89 C 213.54 79.25 206.41 74.50 203.00 66.96 C 199.79 59.42 200.67 49.59 206.96 43.88 Z" />
</g>
<g id="#ff6700ff">
<path fill="#ff6700" opacity="1.00" d=" M 271.78 0.00 L 526.00 0.00 L 526.00 139.21 C 441.25 139.30 356.50 139.23 271.75 139.25 C 271.76 92.83 271.72 46.42 271.78 0.00 M 381.66 24.62 C 379.79 25.86 377.16 26.83 376.17 28.87 C 378.26 33.60 380.60 38.22 382.75 42.93 C 388.06 39.03 394.38 36.10 401.06 36.02 C 403.95 36.22 407.19 36.52 409.41 38.61 C 412.59 42.26 411.73 48.21 408.25 51.36 C 402.32 56.91 394.13 59.08 386.28 60.08 C 385.67 66.00 384.94 71.92 384.45 77.85 C 391.52 77.03 399.64 72.98 406.04 78.09 C 412.98 83.73 410.09 95.79 402.47 99.50 C 392.82 104.28 381.55 104.17 371.08 103.04 C 370.33 108.78 369.51 114.51 368.73 120.25 C 383.04 121.90 397.86 121.02 411.57 116.38 C 420.95 113.29 429.56 106.82 433.85 97.78 C 436.44 91.70 437.17 84.27 433.68 78.38 C 429.39 70.55 420.32 66.39 411.60 66.54 C 419.44 63.94 427.08 59.62 431.83 52.66 C 436.30 46.25 438.12 37.46 434.82 30.15 C 431.54 23.63 424.49 20.00 417.56 18.72 C 405.38 16.49 392.61 19.06 381.66 24.62 M 464.75 18.94 C 456.91 20.71 448.85 23.16 442.67 28.53 C 444.88 33.36 447.26 38.11 449.41 42.96 C 456.25 37.96 465.37 34.06 473.80 37.16 C 479.37 39.33 479.16 47.46 475.19 51.10 C 469.33 56.86 460.94 59.03 453.01 60.07 C 452.30 66.00 451.70 71.94 451.10 77.89 C 457.82 77.16 465.18 73.34 471.58 77.30 C 479.52 81.96 477.49 94.82 469.97 98.94 C 460.30 104.47 448.53 104.08 437.78 103.09 C 437.01 108.81 436.22 114.52 435.42 120.23 C 449.00 121.87 463.03 121.04 476.17 117.08 C 485.17 114.28 494.04 109.35 499.27 101.26 C 503.62 94.21 504.78 84.38 499.77 77.35 C 495.12 70.14 486.32 67.13 478.12 66.53 C 484.98 64.40 491.52 60.82 496.37 55.45 C 501.67 49.47 504.55 40.98 502.60 33.08 C 501.06 27.11 495.98 22.74 490.44 20.52 C 482.30 17.35 473.24 17.37 464.75 18.94 M 302.28 33.26 C 305.01 37.68 307.86 42.02 310.54 46.47 C 316.24 42.15 322.89 38.69 330.07 37.80 C 334.01 37.25 338.67 39.64 338.96 43.97 C 339.18 51.02 334.04 56.62 329.69 61.59 C 319.26 72.20 306.75 80.57 293.67 87.56 C 294.65 90.96 295.66 94.36 296.70 97.76 C 320.80 97.75 344.90 97.75 369.01 97.76 C 370.08 92.18 371.15 86.60 372.17 81.01 C 358.17 80.99 344.17 81.01 330.18 81.00 C 342.58 74.08 356.15 66.89 363.07 53.85 C 367.01 45.95 367.44 35.49 361.68 28.35 C 356.48 21.96 348.10 19.07 340.09 18.54 C 326.02 17.11 312.31 23.77 302.28 33.26 Z" />
</g>
</svg>
