<svg xmlns="http://www.w3.org/2000/svg" viewBox="0 0 512 450"><defs><style>.cls-1{fill:#ff6700;}</style></defs><g id="Layer_2" data-name="Layer 2"><g id="Layer_1-2" data-name="Layer 1"><polygon class="cls-1" points="19 78.28 82 249.88 193 249.88 201 225 310 225 319 249.88 434 249.88 493 78.28 19 78.28"/><path d="M497.09,60H361V45A45.05,45.05,0,0,0,316,0H196a45.05,45.05,0,0,0-45,45V60H15A15,15,0,0,0,0,75V405a45.05,45.05,0,0,0,45,45H467a45.05,45.05,0,0,0,45-45V75.26C511.43,65.41,505.37,60.06,497.09,60ZM181,45a15,15,0,0,1,15-15H316a15,15,0,0,1,15,15V60H181ZM476.19,90,429.61,229.74A15,15,0,0,1,415.38,240H331V225a15,15,0,0,0-15-15H196a15,15,0,0,0-15,15v15H96.62a15,15,0,0,1-14.23-10.26L35.81,90ZM301,240v30H211V240ZM482,405a15,15,0,0,1-15,15H45a15,15,0,0,1-15-15V167.43l23.93,71.8A44.94,44.94,0,0,0,96.62,270H181v15a15,15,0,0,0,15,15H316a15,15,0,0,0,15-15V270h84.38a44.94,44.94,0,0,0,42.69-30.77L482,167.43Z"/></g></g></svg>