<svg xmlns="http://www.w3.org/2000/svg" viewBox="0 0 456 456"><defs><style>.cls-1{fill:#ff6700;}</style></defs><g id="Layer_2" data-name="Layer 2"><g id="Layer_1-2" data-name="Layer 1"><circle class="cls-1" cx="228.22" cy="39.42" r="21.58"/><circle class="cls-1" cx="67.69" cy="228" r="21.58"/><polygon class="cls-1" points="228 134.04 122.87 281.89 175.43 389.8 279.32 395.57 332.85 281.44 228 134.04"/><path d="M442.64,0H389.2a13.36,13.36,0,0,0-13.36,13.36V26.72H265.78a40.07,40.07,0,0,0-75.56,0H80.16V13.36A13.36,13.36,0,0,0,66.8,0H13.36A13.36,13.36,0,0,0,0,13.36V66.8A13.36,13.36,0,0,0,13.36,80.16H66.8A13.37,13.37,0,0,0,80.16,66.8V53.26h55.55a175.51,175.51,0,0,0-81,136.84,40.06,40.06,0,1,0,26.78.26C86.21,127.44,131.52,73.25,192.1,57.87a40.06,40.06,0,0,0,71.8,0c60.58,15.37,105.89,69.56,110.63,132.48a40.1,40.1,0,1,0,26.78-.26,175.19,175.19,0,0,0-81-136.66h55.55V66.8A13.37,13.37,0,0,0,389.2,80.16h53.44A13.36,13.36,0,0,0,456,66.8V13.36A13.36,13.36,0,0,0,442.64,0ZM53.44,53.44H26.72V26.72H53.44ZM67.69,241.36A13.36,13.36,0,1,1,81.05,228,13.37,13.37,0,0,1,67.69,241.36ZM228,53.44a13.36,13.36,0,1,1,13.36-13.36A13.38,13.38,0,0,1,228,53.44Zm160.31,161.2A13.36,13.36,0,1,1,375,228,13.37,13.37,0,0,1,388.31,214.64Zm41-161.2H402.56V26.72h26.72Z"/><path d="M346,274,239.12,113.71h0a1.77,1.77,0,0,0-.12-.17c-.18-.27-.37-.52-.57-.77a13.35,13.35,0,0,0-21.39.77,1.77,1.77,0,0,0-.12.17h0L110,274a13.36,13.36,0,0,0,1.67,16.85,169.3,169.3,0,0,1,48.24,98.78,68,68,0,0,0-25.44,53A13.36,13.36,0,0,0,147.84,456H308.16a13.36,13.36,0,0,0,13.36-13.36,67.71,67.71,0,0,0-19.46-47.57,69.31,69.31,0,0,0-6-5.42,169.3,169.3,0,0,1,48.24-98.77A13.36,13.36,0,0,0,346,274Zm-118-5.95a13.36,13.36,0,1,1-13.36,13.36A13.37,13.37,0,0,1,228,268.08Zm-64.52,161.2c5.56-15.88,20.63-27.61,37.8-27.61h53.44c17.17,0,32.24,11.73,37.8,27.61ZM271,377a65.72,65.72,0,0,0-16.25-2H201.28A65.72,65.72,0,0,0,185,377a196,196,0,0,0-46.89-97l76.5-114.75v78.41a40.08,40.08,0,1,0,26.72,0V165.25L317.86,280A196,196,0,0,0,271,377Z"/></g></g></svg>