<svg xmlns="http://www.w3.org/2000/svg" viewBox="0 0 512 460"><defs><style>.cls-1{fill:#ff6700;}</style></defs><g id="Layer_2" data-name="Layer 2"><g id="Layer_1-2" data-name="Layer 1"><rect class="cls-1" x="16.31" y="17.45" width="485.89" height="269.5"/><path d="M497,0H15A15,15,0,0,0,0,15V355a15,15,0,0,0,15,15H196v60H181a15,15,0,0,0,0,30H331a15,15,0,0,0,0-30H316V370H497a15,15,0,0,0,15-15V15A15,15,0,0,0,497,0ZM482,30V270H30V30ZM286,430H226V370h60ZM30,340V300H482v40Z"/><path d="M223.38,232a14.82,14.82,0,0,0,5.54,1.07,15,15,0,0,0,13.94-9.46L297,87.47a15,15,0,1,0-27.87-11.09L215,212.53A15,15,0,0,0,223.38,232Z"/><path d="M335.56,224.53a15,15,0,0,0,20.49-5.46l36.37-62.78a15,15,0,0,0-.13-15.27L355.92,80.71A15,15,0,0,0,330.23,96.2L362,148.92,330.1,204a15,15,0,0,0,5.46,20.5Z"/><path d="M156,219.07a15,15,0,1,0,26-15L150,148.92,181.77,96.2a15,15,0,1,0-25.69-15.49L119.71,141a15,15,0,0,0-.13,15.27Z"/></g></g></svg>