<?xml version="1.0" encoding="utf-8"?>
<!-- Generator: Adobe Illustrator 24.1.0, SVG Export Plug-In . SVG Version: 6.00 Build 0)  -->
<svg version="1.1" id="Layer_1" xmlns="http://www.w3.org/2000/svg" xmlns:xlink="http://www.w3.org/1999/xlink" x="0px" y="0px"
	 viewBox="0 0 430.9 432.6" style="enable-background:new 0 0 430.9 432.6;" xml:space="preserve">
<style type="text/css">
	.st0{fill:#FF6700;}
</style>
<g id="Layer_2_1_">
	<g id="Layer_1-2">
		<polygon class="st0" points="209.3,365.5 212.3,152.5 12.6,152.5 12.6,409.3 73.5,366.1 		"/>
		<polygon class="st0" points="218.5,231.1 215.5,18.1 415.2,18.1 415.2,274.9 354.3,231.7 		"/>
		<path d="M418.2,0H215.5c-7,0-12.7,5.7-12.7,12.7v124.2H12.7c-7,0-12.7,5.7-12.7,12.7v270.4c0,7,5.6,12.7,12.7,12.7
			c3.4,0,6.6-1.3,9-3.7l47-47h146.8c7,0,12.7-5.7,12.7-12.7l0,0V245h134.2l47,47c4.9,4.9,13,4.9,17.9,0c2.4-2.4,3.7-5.6,3.7-9V12.7
			C430.9,5.7,425.3,0,418.2,0C418.3,0,418.3,0,418.2,0z M202.8,356.6H63.4c-3.4,0-6.6,1.3-9,3.7l-29,29.1V162.2h177.4V356.6z
			 M405.6,252.5l-29.1-29.1c-2.4-2.4-5.6-3.7-9-3.7H228.1V25.4h177.4V252.5z"/>
		<path d="M261.9,109.8h9.3c2.6,19.7,11.2,38.1,24.5,52.7c-9.3,4.2-19.4,6.4-29.6,6.4c-7,0-12.7,5.7-12.7,12.7s5.7,12.7,12.7,12.7
			c0,0,0,0,0,0c17.9,0,35.5-4.9,50.7-14.3c15.2,9.4,32.8,14.3,50.7,14.3c7,0,12.7-5.7,12.7-12.7c0-7-5.7-12.7-12.7-12.7c0,0,0,0,0,0
			c-10.2,0-20.3-2.2-29.6-6.4c13.4-14.6,22-33.1,24.5-52.7h9.3c7-0.2,12.5-6,12.3-13c-0.2-6.7-5.6-12.1-12.3-12.3h-42.2V63.4
			c0-7-5.7-12.7-12.7-12.7c-7,0-12.7,5.7-12.7,12.7c0,0,0,0,0,0v21.1h-42.2c-7-0.2-12.8,5.3-13,12.3c-0.2,7,5.3,12.8,12.3,13
			C261.5,109.8,261.7,109.8,261.9,109.8z M316.9,148c-10.4-10.4-17.4-23.7-20-38.2h40C334.3,124.3,327.3,137.6,316.9,148z"/>
		<path d="M128.6,197.4c-0.1-0.1-0.1-0.2-0.1-0.3c-2.4-5.8-8-9.5-14.2-9.5l0,0c-6.2,0-11.8,3.8-14.2,9.6l-0.1,0.3L55.5,314
			c-2.3,6.6,1.1,13.8,7.7,16.2c6.4,2.2,13.4-0.9,15.9-7.2l8-20.9H141l7.9,20.9c1.9,4.9,6.6,8.2,11.9,8.2c1.5,0,3-0.3,4.5-0.8
			c6.5-2.5,9.9-9.8,7.4-16.3L128.6,197.4z M96.8,276.8l17.4-45.7l17.2,45.7H96.8z"/>
	</g>
</g>
</svg>
