<svg xmlns="http://www.w3.org/2000/svg" viewBox="0 0 425.62 399.02"><defs><style>.cls-1{fill:#ff6700;}</style></defs><g id="Layer_2" data-name="Layer 2"><g id="Layer_1-2" data-name="Layer 1"><path class="cls-1" d="M15.93,89.73v297H410.48V89.73Zm159.47,200V184.13l88,52.79Z"/><path d="M294,226.23,169.35,151.41a12.47,12.47,0,0,0-18.89,10.69V311.73a12.48,12.48,0,0,0,18.89,10.7L294,247.61a12.46,12.46,0,0,0,0-21.38ZM175.4,289.71V184.13l88,52.79Z"/><path d="M413.15,0H12.47A12.47,12.47,0,0,0,0,12.47V386.55A12.47,12.47,0,0,0,12.47,399H413.15a12.47,12.47,0,0,0,12.47-12.47V12.47A12.51,12.51,0,0,0,413.15,0ZM250.22,74.82l66.5-49.88h58.77L308.44,74.82Zm-99.76,0L217,24.94h58.19L208.65,74.82Zm-100.33,0,67.05-49.88H175.4L108.9,74.82ZM400.68,37.29V74.82H350.22ZM75.4,24.94,24.94,62.47V24.94ZM400.68,374.08H24.94V99.75H400.68Z"/></g></g></svg>