<?xml version="1.0" encoding="utf-8"?>
<!-- Generator: Adobe Illustrator 24.1.0, SVG Export Plug-In . SVG Version: 6.00 Build 0)  -->
<svg version="1.1" id="Layer_1" xmlns="http://www.w3.org/2000/svg" xmlns:xlink="http://www.w3.org/1999/xlink" x="0px" y="0px"
	 viewBox="0 0 500 500" style="enable-background:new 0 0 500 500;" xml:space="preserve">
<style type="text/css">
	.st0{fill:none;stroke:#263238;stroke-linecap:round;stroke-linejoin:round;}
	.st1{fill:#FFFFFF;stroke:#263238;stroke-linecap:round;stroke-linejoin:round;}
	.st2{fill:#263238;}
	.st3{fill:#999999;stroke:#263238;stroke-linecap:round;stroke-linejoin:round;}
	.st4{fill:#FF6700;}
	.st5{clip-path:url(#SVGID_2_);}
	.st6{opacity:0.1;enable-background:new    ;}
	.st7{clip-path:url(#SVGID_4_);}
	.st8{opacity:0.2;fill:#FFFFFF;enable-background:new    ;}
	.st9{fill:#263238;stroke:#263238;stroke-linecap:round;stroke-linejoin:round;}
	.st10{clip-path:url(#SVGID_6_);}
	.st11{opacity:0.4;fill:#FFFFFF;enable-background:new    ;}
	.st12{fill:#FF6700;stroke:#263238;stroke-linecap:round;stroke-linejoin:round;}
	.st13{clip-path:url(#SVGID_8_);}
	.st14{opacity:0.2;enable-background:new    ;}
	.st15{fill:#999999;}
	.st16{clip-path:url(#SVGID_10_);}
	.st17{clip-path:url(#SVGID_12_);}
	.st18{fill:none;stroke:#263238;stroke-width:0.75;stroke-linecap:round;stroke-linejoin:round;}
	.st19{clip-path:url(#SVGID_14_);}
	.st20{fill:none;stroke:#7F7F7F;stroke-width:0.75;stroke-linecap:round;stroke-linejoin:round;}
	.st21{clip-path:url(#SVGID_16_);}
</style>
<g id="freepik--Room--inject-39">
	<line class="st0" x1="20.9" y1="393" x2="438" y2="393"/>
	<polyline class="st0" points="442.3,82.8 442.3,393 469.9,420.6 	"/>
	<g id="freepik--Lamp--inject-39">
		<line class="st0" x1="360" y1="101.2" x2="360" y2="47.2"/>
		<path class="st0" d="M336.7,124.5c-0.3-12.9,9.9-23.5,22.8-23.8c12.9-0.3,23.5,9.9,23.8,22.8c0,0.3,0,0.6,0,1H336.7z"/>
	</g>
	<line class="st0" x1="66.3" y1="393" x2="47.2" y2="393"/>
</g>
<g id="freepik--Shelf--inject-39">
	<rect x="123.6" y="268.8" class="st0" width="20" height="124.2"/>
	<rect x="35.7" y="278" class="st0" width="80.8" height="30.2"/>
	<rect x="35.7" y="311.5" class="st0" width="80.8" height="30.2"/>
	<rect x="35.7" y="345" class="st0" width="80.8" height="30.2"/>
	<path class="st0" d="M67.6,280.2c0,1.9,1.5,3.4,3.4,3.4h10.3c1.9,0,3.4-1.5,3.4-3.3c0,0,0,0,0,0"/>
	<path class="st0" d="M67.6,313.7c0,1.8,1.5,3.3,3.4,3.3h10.3c1.9,0,3.4-1.5,3.4-3.4"/>
	<path class="st0" d="M67.6,347.1c0,1.9,1.5,3.4,3.4,3.4h10.3c1.9,0,3.4-1.5,3.4-3.4"/>
	<polyline class="st0" points="120.3,393 29.1,393 29.1,268.8 120.3,268.8 	"/>
</g>
<g id="freepik--Chair--inject-39">
	<path class="st0" d="M198.2,332.7v47l24.6,8.7c0.6,0.2,1,0.8,1.1,1.5v1.5c0,0.9-0.7,1.6-1.6,1.6c-0.2,0-0.3,0-0.4-0.1l-25.3-7.4
		l-0.5,6.1c-0.1,0.9-0.8,1.6-1.7,1.5h-1.3c-0.9,0-1.6-0.7-1.7-1.5l-0.5-6.1l-25.3,7.4c-0.8,0.2-1.7-0.2-1.9-1.1
		c0-0.1-0.1-0.3-0.1-0.4v-1.5c0-0.7,0.4-1.3,1.1-1.5l24.6-8.7v-47"/>
	<line class="st0" x1="187" y1="315.7" x2="187" y2="302.1"/>
	<line class="st0" x1="181.2" y1="302.1" x2="181.2" y2="315.7"/>
	<path class="st0" d="M162,299.7c-4.1-0.2-7-2.8-7-7.4v-23.8c0.1-2.9,2-5.5,4.8-6.6"/>
	<path class="st0" d="M160.9,265.4v26.8c0,4.6,3.7,7.2,8.3,6.4c10.1-1.9,20.6-1.4,30.5,1.3c4.6,1.2,8.2-1,8.2-5.6v-26.8
		c-0.1-2.4-1.6-4.5-3.8-5.4c-12.7-4.3-26.3-4.9-39.3-1.7C162.5,261,161,263,160.9,265.4z"/>
	<path class="st0" d="M179.8,317.7h-13.3c-4.7,0-8.5,3.8-8.5,8.5c0,0,0,0,0,0l0,0c0,2.2,1.8,3.9,3.9,3.9l0,0h15.5"/>
	<path class="st0" d="M181.8,330.1h43.9c2.2,0,3.9-1.8,3.9-3.9l0,0l0,0c0-4.7-3.8-8.5-8.5-8.5c0,0,0,0,0,0h-34.7
		c-4.7,0-8.5,3.8-8.5,8.5c0,0,0,0,0,0l0,0C177.9,328.4,179.7,330.1,181.8,330.1z"/>
</g>
<g id="freepik--Desk--inject-39">
	<path class="st0" d="M388.6,247.8c1.1,0,2-0.8,2.1-1.9l4.4-40.8c0.1-0.9-0.5-1.8-1.4-1.9c-0.1,0-0.2,0-0.3,0"/>
	<rect x="280.3" y="272.3" class="st0" width="140.9" height="13.1"/>
	<polyline class="st0" points="230.1,272.3 230.1,285.4 278.1,285.4 	"/>
	<polyline class="st0" points="425.8,270.9 425.8,262.7 288.3,262.7 	"/>
	<rect x="225.6" y="262.7" class="st0" width="60.6" height="8.2"/>
	<polyline class="st0" points="413.6,287.5 413.6,393 416.6,393 417.7,287.5 	"/>
	<polyline class="st0" points="409.5,287.5 410.5,393 413.6,393 413.6,287.5 	"/>
	<polyline class="st0" points="373.3,287.5 373.3,393 376.3,393 377.4,287.5 	"/>
	<polyline class="st0" points="369.1,287.5 370.2,393 373.3,393 373.3,287.5 	"/>
	<polyline class="st0" points="278.1,287.5 278.1,393 281.1,393 282.2,287.5 	"/>
	<polyline class="st0" points="273.9,287.5 275,393 278.1,393 278.1,287.5 	"/>
	<polyline class="st0" points="237.8,287.5 237.8,393 240.8,393 241.9,287.5 	"/>
	<polyline class="st0" points="233.6,287.5 234.7,393 237.8,393 237.8,287.5 	"/>
	<rect x="311.3" y="260.2" class="st0" width="29.6" height="2.5"/>
	<path class="st0" d="M395.5,262.7h-6.9c-1,0-1.7-0.8-1.7-1.7c0,0,0,0,0,0v-2.2l0,0h10.3l0,0v2.2
		C397.2,261.9,396.4,262.7,395.5,262.7C395.5,262.7,395.5,262.7,395.5,262.7z"/>
	<path class="st0" d="M397.2,258.8c0-1.5-2.3-2.7-5.2-2.7s-5.2,1.2-5.2,2.7H397.2z"/>
	<path class="st0" d="M386.8,258.8c0-1.5,2.3-2.7,5.2-2.7v2.7H386.8z"/>
	<path class="st0" d="M386.5,247.8h-57.8c-0.9,0-1.7-0.7-1.7-1.6c0-0.1,0-0.2,0-0.3l4.4-40.8c0.1-1.1,1-1.9,2.1-1.9h57.8
		c0.9,0,1.7,0.7,1.7,1.7c0,0.1,0,0.2,0,0.2l-4.4,40.8C388.5,247,387.6,247.8,386.5,247.8z"/>
	<polyline class="st0" points="365.9,248.9 366.9,258.1 369.1,258.1 368.1,248.9 	"/>
	<polyline class="st0" points="351.8,248.9 352.8,258.1 366.9,258.1 365.9,248.9 	"/>
	<path class="st0" d="M384.1,244.9h-52.3c-0.8,0-1.5-0.6-1.5-1.4c0-0.1,0-0.2,0-0.2l3.8-35.4c0.1-0.9,0.9-1.6,1.8-1.7h52.3
		c0.8,0,1.5,0.6,1.5,1.4c0,0.1,0,0.2,0,0.2l-3.8,35.4C385.8,244.2,385,244.9,384.1,244.9z"/>
	<rect x="342.5" y="258.1" class="st0" width="28.8" height="4.6"/>
	<rect x="371.3" y="258.1" class="st0" width="8.4" height="4.6"/>
	<rect x="312.9" y="214.9" class="st1" width="94.1" height="21.2"/>
	<path class="st2" d="M324.2,227.7l-1.5-1.2l0.2,1.9c0.1,0.5-0.2,0.9-0.7,1c-0.1,0-0.1,0-0.2,0l0,0c-0.5,0-0.9-0.4-0.9-0.8
		c0-0.1,0-0.1,0-0.2l0.2-1.9l-1.5,1.2c-0.4,0.3-0.9,0.2-1.2-0.2c0,0,0,0-0.1-0.1l0,0c-0.2-0.4-0.1-0.9,0.3-1.1c0,0,0.1,0,0.1-0.1
		l1.8-0.7l-1.8-0.7c-0.4-0.2-0.6-0.7-0.4-1.1c0,0,0-0.1,0-0.1l0,0c0.2-0.4,0.7-0.5,1.1-0.3c0,0,0.1,0,0.1,0.1l1.5,1.2l-0.2-1.9
		c-0.1-0.5,0.2-0.9,0.7-1c0.1,0,0.1,0,0.2,0l0,0c0.5,0,0.9,0.4,0.9,0.8c0,0.1,0,0.1,0,0.2l-0.2,1.9l1.5-1.2c0.4-0.3,0.9-0.2,1.2,0.2
		c0,0,0,0.1,0.1,0.1l0,0c0.2,0.4,0.1,0.9-0.3,1.2c0,0-0.1,0-0.1,0l-1.8,0.7l1.8,0.7c0.4,0.2,0.6,0.7,0.5,1.1c0,0,0,0.1-0.1,0.1l0,0
		C325.2,227.8,324.7,228,324.2,227.7C324.3,227.7,324.3,227.7,324.2,227.7z"/>
	<path class="st2" d="M337.8,227.7l-1.5-1.2l0.2,1.9c0.1,0.5-0.2,0.9-0.7,1c-0.1,0-0.1,0-0.2,0l0,0c-0.5,0-0.8-0.4-0.8-0.8
		c0-0.1,0-0.1,0-0.2l0.2-1.9l-1.5,1.2c-0.4,0.3-0.9,0.2-1.2-0.2c0,0,0,0,0-0.1l0,0c-0.2-0.4-0.1-0.9,0.3-1.2c0,0,0.1,0,0.1,0
		l1.7-0.7l-1.7-0.7c-0.4-0.2-0.6-0.7-0.4-1.1c0,0,0-0.1,0-0.1l0,0c0.2-0.4,0.8-0.5,1.2-0.3c0,0,0.1,0,0.1,0.1l1.5,1.2l-0.2-1.9
		c-0.1-0.5,0.2-0.9,0.7-1c0.1,0,0.1,0,0.2,0l0,0c0.5,0,0.9,0.4,0.9,0.8c0,0.1,0,0.1,0,0.2l-0.2,1.9l1.5-1.2c0.4-0.3,0.9-0.2,1.2,0.2
		c0,0,0,0.1,0.1,0.1l0,0c0.2,0.4,0.1,0.9-0.3,1.2c0,0-0.1,0-0.1,0l-1.7,0.7l1.7,0.7c0.4,0.2,0.6,0.7,0.5,1.1c0,0,0,0.1-0.1,0.1l0,0
		C338.8,227.8,338.3,228,337.8,227.7C337.8,227.7,337.8,227.7,337.8,227.7z"/>
	<path class="st2" d="M351.4,227.7l-1.5-1.2l0.2,1.9c0.1,0.5-0.2,0.9-0.7,1c-0.1,0-0.1,0-0.2,0l0,0c-0.5,0-0.8-0.4-0.9-0.8
		c0-0.1,0-0.1,0-0.2l0.2-1.9l-1.5,1.2c-0.4,0.3-0.9,0.2-1.2-0.2c0,0,0,0-0.1-0.1l0,0c-0.2-0.4-0.1-0.9,0.3-1.1c0,0,0.1,0,0.1-0.1
		l1.7-0.7l-1.7-0.7c-0.4-0.2-0.6-0.7-0.4-1.1c0,0,0-0.1,0-0.1l0,0c0.2-0.4,0.7-0.5,1.1-0.3c0,0,0.1,0,0.1,0.1l1.5,1.2l-0.2-1.9
		c-0.1-0.5,0.2-0.9,0.7-1c0.1,0,0.1,0,0.2,0l0,0c0.5,0,0.8,0.4,0.8,0.8c0,0.1,0,0.1,0,0.2l-0.2,1.9l1.5-1.2c0.4-0.3,0.9-0.2,1.2,0.2
		c0,0,0,0.1,0.1,0.1l0,0c0.2,0.4,0.1,0.9-0.3,1.2c0,0-0.1,0-0.1,0l-1.7,0.7l1.7,0.7c0.4,0.2,0.6,0.7,0.5,1.1c0,0,0,0.1-0.1,0.1l0,0
		C352.4,227.8,351.8,228,351.4,227.7C351.4,227.7,351.4,227.7,351.4,227.7z"/>
	<path class="st2" d="M365,227.7l-1.5-1.2l0.2,1.9c0.1,0.5-0.2,0.9-0.7,1c-0.1,0-0.1,0-0.2,0l0,0c-0.5,0-0.9-0.4-0.9-0.8
		c0-0.1,0-0.1,0-0.2l0.2-1.9l-1.5,1.2c-0.4,0.3-0.9,0.2-1.2-0.2c0,0,0,0-0.1-0.1l0,0c-0.2-0.4-0.1-0.9,0.3-1.1c0,0,0.1,0,0.1-0.1
		l1.8-0.7l-1.8-0.7c-0.4-0.2-0.6-0.7-0.4-1.1c0,0,0-0.1,0-0.1l0,0c0.2-0.4,0.7-0.5,1.1-0.3c0,0,0.1,0,0.1,0.1l1.5,1.2l-0.2-1.9
		c-0.1-0.5,0.2-0.9,0.7-1c0.1,0,0.1,0,0.2,0l0,0c0.5,0,0.8,0.4,0.8,0.8c0,0.1,0,0.1,0,0.2l-0.2,1.9l1.5-1.2c0.4-0.3,0.9-0.2,1.2,0.2
		c0,0,0,0.1,0.1,0.1l0,0c0.2,0.4,0.1,0.9-0.3,1.2c0,0,0,0-0.1,0l-1.8,0.7l1.7,0.7c0.4,0.2,0.6,0.7,0.5,1.1c0,0,0,0.1,0,0.1l0,0
		C366,227.8,365.5,228,365,227.7C365,227.7,365,227.7,365,227.7z"/>
	<path class="st2" d="M378.5,227.7l-1.5-1.2l0.2,1.9c0.1,0.5-0.2,0.9-0.7,1c-0.1,0-0.1,0-0.2,0l0,0c-0.5,0-0.9-0.4-0.9-0.8
		c0-0.1,0-0.1,0-0.2l0.2-1.9l-1.5,1.2c-0.4,0.3-0.9,0.2-1.2-0.2c0,0,0,0-0.1-0.1l0,0c-0.2-0.4-0.1-0.9,0.3-1.1c0,0,0.1,0,0.1-0.1
		l1.8-0.7l-1.8-0.7c-0.4-0.2-0.6-0.7-0.4-1.1c0,0,0-0.1,0-0.1l0,0c0.2-0.4,0.7-0.5,1.1-0.3c0,0,0.1,0,0.1,0.1l1.5,1.2l-0.2-1.9
		c-0.1-0.5,0.2-0.9,0.7-1c0.1,0,0.1,0,0.2,0l0,0c0.5,0,0.9,0.4,0.9,0.8c0,0.1,0,0.1,0,0.2l-0.2,1.8l1.5-1.2c0.4-0.3,0.9-0.2,1.2,0.2
		c0,0,0,0.1,0.1,0.1l0,0c0.2,0.4,0.1,0.9-0.3,1.2c0,0-0.1,0-0.1,0l-1.8,0.7l1.8,0.7c0.4,0.2,0.6,0.7,0.5,1.1c0,0,0,0.1-0.1,0.1l0,0
		C379.5,227.8,379,227.9,378.5,227.7C378.6,227.7,378.6,227.7,378.5,227.7z"/>
	<path class="st1" d="M401.2,225.5c0,0-2.8,3.4-6.2,3.4s-6.2-3.4-6.2-3.4s2.8-3.5,6.1-3.5S401.2,225.5,401.2,225.5z"/>
	<path class="st3" d="M397.2,225.5c0,1.2-0.9,2.1-2.1,2.1s-2.1-0.9-2.1-2.1c0-1.2,0.9-2.1,2.1-2.1c0,0,0,0,0,0
		C396.2,223.3,397.2,224.3,397.2,225.5C397.2,225.5,397.2,225.5,397.2,225.5z"/>
</g>
<g id="freepik--Plant--inject-39">
	<path class="st4" d="M377.4,317.9c0,0-11.5,23.6-21.5,11.6s6.9-16.5,6.9-16.5s-20.5,2.4-20.5-8.7s14.6-4.2,14.6-4.2
		s-18.9-14.8-9.7-21c6.4-4.3,21.9,11.3,21.9,11.3s-5.9-15.3,1-15.7s11.5,21.9,11.5,21.9s3.8-16.4,10.8-11.7s-5.5,22.9-5.5,22.9
		s8.9-8.8,11.4-2.6s-11.4,10.4-11.4,10.4s-0.1,22.9-7.7,20.1S377.4,317.9,377.4,317.9z"/>
	<path class="st0" d="M401.8,369.2c0,0,0-52.7-31.4-68.7"/>
	<path class="st0" d="M381.6,308.9c0,0-8.8,1.6-18.6,12.3"/>
	<path class="st0" d="M375.5,303.6c0,0-9.7,3-19,1.9"/>
	<path class="st0" d="M378.2,305.7c4.5-3,8.1-7.3,10.3-12.2"/>
	<path class="st4" d="M436.9,333.4c0,0,9.7,20,18.1,9.8s-5.9-13.9-5.9-13.9s17.3,2,17.3-7.3s-12.3-3.5-12.3-3.5s16-12.5,8.2-17.7
		c-5.4-3.6-18.5,9.6-18.5,9.6s5-12.9-0.9-13.2s-9.7,18.5-9.7,18.5s-3.2-13.8-9.1-9.8s4.6,19.3,4.6,19.3s-7.5-7.4-9.6-2.2
		s9.6,8.8,9.6,8.8s0.1,19.3,6.5,17S436.9,333.4,436.9,333.4z"/>
	<g>
		<defs>
			<path id="SVGID_1_" d="M436.9,333.4c0,0,9.7,20,18.1,9.8s-5.9-13.9-5.9-13.9s17.3,2,17.3-7.3s-12.3-3.5-12.3-3.5
				s16-12.5,8.2-17.7c-5.4-3.6-18.5,9.6-18.5,9.6s5-12.9-0.9-13.2s-9.7,18.5-9.7,18.5s-3.2-13.8-9.1-9.8s4.6,19.3,4.6,19.3
				s-7.5-7.4-9.6-2.2s9.6,8.8,9.6,8.8s0.1,19.3,6.5,17S436.9,333.4,436.9,333.4z"/>
		</defs>
		<clipPath id="SVGID_2_">
			<use xlink:href="#SVGID_1_"  style="overflow:visible;"/>
		</clipPath>
		<g class="st5">
			<path class="st6" d="M436.9,333.4c0,0,9.7,20,18.1,9.8s-5.9-13.9-5.9-13.9s17.3,2,17.3-7.3s-12.3-3.5-12.3-3.5s16-12.5,8.2-17.7
				c-5.4-3.6-18.5,9.6-18.5,9.6s5-12.9-0.9-13.2s-9.7,18.5-9.7,18.5s-3.2-13.8-9.1-9.8s4.6,19.3,4.6,19.3s-7.5-7.4-9.6-2.2
				s9.6,8.8,9.6,8.8s0.1,19.3,6.5,17S436.9,333.4,436.9,333.4z"/>
		</g>
	</g>
	<path class="st0" d="M435.7,322.4L435.7,322.4c-13.6,9.9-15.6,44-15.6,44"/>
	<path class="st0" d="M431.7,326.4c5.5,2.1,10.5,5.5,14.5,9.8"/>
	<path class="st0" d="M440.1,305.7c0,7.5-4.4,16.7-4.4,16.7l3.2,1"/>
	<path class="st0" d="M441.6,324.2c0,0,8.2,1.8,14.5,0"/>
	<path class="st4" d="M407.5,282c0,0-23.1,1-21.7-11.4c1.2-10.3,17.6-3.4,17.6-3.4s-13.4-15.6-4.2-21.8s14.7,11.8,14.7,11.8
		s5.9-26,16.2-21.9c7.2,2.9-4.5,24.5-4.5,24.5s13.6-9.3,17.8-3.7c4.2,5.6-15.9,17.5-15.9,17.5s15.7-6,15.7,2.4s-22,8.2-22,8.2
		s12.3,2.5,8.5,8s-15-3.6-15-3.6s-15,10.9-17,3S407.5,282,407.5,282z"/>
	<g>
		<defs>
			<path id="SVGID_3_" d="M407.5,282c0,0-23.1,1-21.7-11.4c1.2-10.3,17.6-3.4,17.6-3.4s-13.4-15.6-4.2-21.8s14.7,11.8,14.7,11.8
				s5.9-26,16.2-21.9c7.2,2.9-4.5,24.5-4.5,24.5s13.6-9.3,17.8-3.7c4.2,5.6-15.9,17.5-15.9,17.5s15.7-6,15.7,2.4s-22,8.2-22,8.2
				s12.3,2.5,8.5,8s-15-3.6-15-3.6s-15,10.9-17,3S407.5,282,407.5,282z"/>
		</defs>
		<clipPath id="SVGID_4_">
			<use xlink:href="#SVGID_3_"  style="overflow:visible;"/>
		</clipPath>
		<g class="st7">
			<path class="st8" d="M407.5,282c0,0-23.1,1-21.7-11.4c1.2-10.3,17.6-3.4,17.6-3.4s-13.4-15.6-4.2-21.8s14.7,11.8,14.7,11.8
				s5.9-26,16.2-21.9c7.2,2.9-4.5,24.5-4.5,24.5s13.6-9.3,17.8-3.7c4.2,5.6-15.9,17.5-15.9,17.5s15.7-6,15.7,2.4s-22,8.2-22,8.2
				s12.3,2.5,8.5,8s-15-3.6-15-3.6s-15,10.9-17,3S407.5,282,407.5,282z"/>
		</g>
	</g>
	<path class="st0" d="M410.7,369.2c0,0-3.7-65.3,9.4-109"/>
	<path class="st0" d="M394.7,272.1c0,0,9.7-0.8,21.2,5.5"/>
	<path class="st0" d="M402.8,251.6c0,0,9.7,9.5,13.7,23.3"/>
	<path class="st0" d="M417.4,270.8c0,0,6.3-7,14.3-8.8"/>
	<path class="st1" d="M435.5,362.8h-49.8l4,45.1c0.1,1,0.9,1.7,1.9,1.7l0,0l1,11.1c0.1,1,0.9,1.7,1.9,1.7h32.1c1,0,1.8-0.8,1.9-1.7
		l1-11.1l0,0c1,0,1.8-0.8,1.9-1.7L435.5,362.8z"/>
	<path class="st9" d="M435.9,366.5h-50.4c-2,0-3.6-1.6-3.6-3.6l0,0c0-2,1.6-3.6,3.6-3.6h50.4c2,0,3.5,1.6,3.5,3.6l0,0
		C439.4,364.9,437.8,366.4,435.9,366.5z"/>
	<line class="st0" x1="420.4" y1="409.8" x2="423.7" y2="409.8"/>
	<line class="st0" x1="397.5" y1="409.8" x2="417.1" y2="409.8"/>
</g>
<g id="freepik--Device--inject-39">
	<path class="st3" d="M300.3,38.7h-13.6v260.7h13.6c4.5,0,8.2-3.7,8.2-8.2V46.9C308.4,42.4,304.8,38.7,300.3,38.7z"/>
	<path class="st9" d="M178,38.7h118.6c4.1,0,7.5,3.4,7.5,7.5v245.7c0,4.1-3.4,7.5-7.5,7.5H178c-4.1,0-7.5-3.4-7.5-7.5V46.2
		C170.5,42.1,173.8,38.7,178,38.7z"/>
	<path class="st4" d="M260.4,50.2L260.4,50.2c-0.4,3.3-3.2,5.8-6.5,5.8h-34.3c-3.3,0-6.1-2.5-6.5-5.8l0,0c-0.4-3.3-3.2-5.8-6.5-5.8
		h-24.1c-3.6,0-6.6,2.9-6.6,6.5v236.1c0,3.6,2.9,6.6,6.6,6.6h109.9c3.6,0,6.6-2.9,6.6-6.6V51c0-3.6-2.9-6.6-6.6-6.6c0,0,0,0,0,0
		h-25.3C263.6,44.4,260.8,46.9,260.4,50.2z"/>
	<g>
		<defs>
			<path id="SVGID_5_" d="M260.4,50.2L260.4,50.2c-0.4,3.3-3.2,5.8-6.5,5.8h-34.3c-3.3,0-6.1-2.5-6.5-5.8l0,0
				c-0.4-3.3-3.2-5.8-6.5-5.8h-24.1c-3.6,0-6.6,2.9-6.6,6.5v236.1c0,3.6,2.9,6.6,6.6,6.6h109.9c3.6,0,6.6-2.9,6.6-6.6V51
				c0-3.6-2.9-6.6-6.6-6.6c0,0,0,0,0,0h-25.3C263.6,44.4,260.8,46.9,260.4,50.2z"/>
		</defs>
		<clipPath id="SVGID_6_">
			<use xlink:href="#SVGID_5_"  style="overflow:visible;"/>
		</clipPath>
		<g class="st10">
			<polygon class="st11" points="212,310.3 171.8,310.3 268.6,25.3 308.8,25.3 			"/>
			<polygon class="st11" points="240.1,310.3 229.4,310.3 326.2,25.3 336.9,25.3 			"/>
		</g>
	</g>
	<path class="st0" d="M260.4,50.2L260.4,50.2c-0.4,3.3-3.2,5.8-6.5,5.8h-34.3c-3.3,0-6.1-2.5-6.5-5.8l0,0c-0.4-3.3-3.2-5.8-6.5-5.8
		h-24.1c-3.6,0-6.6,2.9-6.6,6.5v236.1c0,3.6,2.9,6.6,6.6,6.6h109.9c3.6,0,6.6-2.9,6.6-6.6V51c0-3.6-2.9-6.6-6.6-6.6c0,0,0,0,0,0
		h-25.3C263.6,44.4,260.8,46.9,260.4,50.2z"/>
	<path class="st12" d="M225.5,47.8c0,1.7-1.3,3-3,3s-3-1.3-3-3s1.3-3,3-3S225.5,46.2,225.5,47.8z"/>
	<path class="st3" d="M249.2,44.9H234c-1.6,0-2.9,1.3-2.9,2.9c0,1.6,1.3,2.9,2.9,2.9h15.2c1.6,0,2.9-1.3,2.9-2.9
		C252.1,46.2,250.8,44.9,249.2,44.9z"/>
	<path class="st3" d="M251,280.9h-29.2c-1.7,0-3,1.3-3,3s1.3,3,3,3l0,0H251c1.7,0,3-1.3,3-3S252.7,280.9,251,280.9z"/>
	<path class="st2" d="M309.9,105.1V85.6c0-0.9-0.7-1.6-1.6-1.6s-1.6,0.7-1.6,1.6v19.5c0,0.9,0.7,1.6,1.6,1.6S309.9,106,309.9,105.1
		L309.9,105.1z"/>
	<path class="st2" d="M309.9,119.6v-6.5c0-0.9-0.7-1.6-1.6-1.6s-1.6,0.7-1.6,1.6l0,0v6.5c0,0.9,0.7,1.6,1.6,1.6
		S309.9,120.5,309.9,119.6L309.9,119.6z"/>
	<rect x="165.9" y="133.9" class="st1" width="147.1" height="33.1"/>
	<path class="st2" d="M183.6,154l-2.4-1.8l0.4,2.9c0.1,0.7-0.4,1.4-1.1,1.5c-0.1,0-0.1,0-0.2,0l0,0c-0.7,0-1.3-0.6-1.3-1.3
		c0-0.1,0-0.1,0-0.2l0.4-2.9L177,154c-0.6,0.4-1.4,0.3-1.9-0.2c0,0-0.1-0.1-0.1-0.1v-0.1c-0.4-0.6-0.2-1.4,0.5-1.8
		c0,0,0.1-0.1,0.2-0.1l2.7-1.1l-2.7-1.1c-0.7-0.3-1-1.1-0.7-1.7c0-0.1,0-0.1,0.1-0.2v-0.1c0.3-0.6,1.1-0.9,1.8-0.6
		c0.1,0,0.1,0.1,0.2,0.1l2.4,1.8l-0.4-2.9c-0.1-0.7,0.4-1.4,1.1-1.5c0.1,0,0.1,0,0.2,0l0,0c0.7,0,1.3,0.6,1.3,1.3c0,0.1,0,0.1,0,0.2
		l-0.4,2.9l2.4-1.8c0.6-0.4,1.4-0.3,1.8,0.3c0,0,0.1,0.1,0.1,0.1v0.1c0.4,0.6,0.2,1.4-0.5,1.8c0,0-0.1,0.1-0.2,0.1l-2.7,1.1l2.7,1.1
		c0.7,0.3,1,1.1,0.7,1.7c0,0.1,0,0.1-0.1,0.2v0.1c-0.4,0.6-1.2,0.9-1.8,0.5C183.7,154,183.7,154,183.6,154z"/>
	<path class="st2" d="M204.8,154l-2.4-1.8l0.4,2.9c0.1,0.7-0.4,1.4-1.1,1.5c-0.1,0-0.1,0-0.2,0l0,0c-0.7,0-1.3-0.6-1.3-1.3
		c0-0.1,0-0.1,0-0.2l0.4-2.9l-2.4,1.8c-0.6,0.4-1.4,0.3-1.9-0.2c0,0-0.1-0.1-0.1-0.1v-0.1c-0.4-0.6-0.2-1.4,0.5-1.8
		c0,0,0.1-0.1,0.2-0.1l2.7-1.1l-2.7-1.1c-0.7-0.3-1-1.1-0.7-1.7c0-0.1,0-0.1,0.1-0.2v-0.1c0.4-0.6,1.2-0.8,1.8-0.5
		c0,0,0.1,0.1,0.1,0.1l2.4,1.8l-0.4-2.9c-0.1-0.7,0.4-1.4,1.1-1.5c0.1,0,0.1,0,0.2,0l0,0c0.7,0,1.3,0.6,1.3,1.3c0,0.1,0,0.1,0,0.2
		l-0.4,2.9l2.4-1.8c0.6-0.4,1.4-0.3,1.8,0.2c0,0,0.1,0.1,0.1,0.1v0.1c0.4,0.6,0.2,1.4-0.5,1.8c0,0-0.1,0.1-0.2,0.1l-2.7,1.1l2.7,1.1
		c0.7,0.3,1,1.1,0.7,1.7c0,0.1,0,0.1-0.1,0.2v0.1c-0.4,0.6-1.2,0.8-1.8,0.5C204.9,154.1,204.9,154,204.8,154z"/>
	<path class="st2" d="M226,154l-2.4-1.8l0.4,2.9c0.1,0.7-0.4,1.4-1.1,1.5c-0.1,0-0.1,0-0.2,0l0,0c-0.7,0-1.3-0.6-1.3-1.3
		c0-0.1,0-0.1,0-0.2l0.4-2.9l-2.3,1.8c-0.6,0.4-1.4,0.3-1.9-0.2c0,0-0.1-0.1-0.1-0.1v-0.1c-0.4-0.6-0.2-1.4,0.5-1.8
		c0,0,0.1-0.1,0.2-0.1l2.7-1.1l-2.7-1.1c-0.7-0.3-1-1.1-0.7-1.7c0-0.1,0-0.1,0.1-0.2v-0.1c0.4-0.6,1.2-0.8,1.8-0.5
		c0,0,0.1,0.1,0.1,0.1l2.4,1.8l-0.4-2.9c-0.1-0.7,0.4-1.4,1.1-1.5c0.1,0,0.1,0,0.2,0l0,0c0.7,0,1.3,0.6,1.3,1.3c0,0.1,0,0.1,0,0.2
		l-0.4,2.9l2.3-1.9c0.6-0.4,1.4-0.3,1.8,0.3c0,0,0.1,0.1,0.1,0.1v0.1c0.4,0.6,0.2,1.4-0.5,1.8c-0.1,0-0.1,0.1-0.2,0.1l-2.7,1.1
		l2.7,1.1c0.7,0.3,1,1.1,0.7,1.7c0,0.1,0,0.1-0.1,0.2v0.1c-0.3,0.6-1.1,0.9-1.8,0.5C226.1,154.1,226,154,226,154z"/>
	<path class="st2" d="M247.2,154l-2.4-1.8l0.4,2.9c0.1,0.7-0.4,1.4-1.1,1.5c-0.1,0-0.1,0-0.2,0l0,0c-0.7,0-1.3-0.6-1.3-1.3
		c0-0.1,0-0.1,0-0.2l0.4-2.9l-2.4,1.8c-0.6,0.4-1.4,0.3-1.9-0.2c0,0-0.1-0.1-0.1-0.1v-0.1c-0.4-0.6-0.2-1.4,0.5-1.8
		c0,0,0.1-0.1,0.2-0.1l2.7-1.1l-2.7-1.1c-0.7-0.3-1-1.1-0.7-1.7c0-0.1,0-0.1,0.1-0.2v-0.1c0.4-0.6,1.2-0.8,1.8-0.5
		c0,0,0.1,0.1,0.1,0.1l2.4,1.8l-0.4-2.9c-0.1-0.7,0.4-1.4,1.1-1.5c0.1,0,0.1,0,0.2,0l0,0c0.7,0,1.3,0.6,1.3,1.3c0,0.1,0,0.1,0,0.2
		l-0.4,2.9l2.4-1.8c0.6-0.4,1.4-0.3,1.8,0.3c0,0,0.1,0.1,0.1,0.1v0.1c0.4,0.6,0.2,1.4-0.5,1.8c0,0-0.1,0.1-0.2,0.1l-2.7,1.1l2.7,1.1
		c0.7,0.3,1,1.1,0.7,1.7c0,0.1,0,0.1-0.1,0.2v0.1c-0.4,0.6-1.2,0.8-1.8,0.5C247.3,154.1,247.3,154,247.2,154z"/>
	<path class="st2" d="M268.5,154l-2.4-1.8l0.4,2.9c0.1,0.7-0.4,1.4-1.1,1.5c-0.1,0-0.1,0-0.2,0l0,0c-0.7,0-1.3-0.6-1.3-1.3
		c0-0.1,0-0.1,0-0.2l0.4-2.9l-2.4,1.8c-0.6,0.4-1.4,0.3-1.9-0.2c0,0-0.1-0.1-0.1-0.1v-0.1c-0.4-0.6-0.2-1.4,0.5-1.8
		c0,0,0.1-0.1,0.2-0.1l2.7-1.1l-2.7-1.1c-0.7-0.3-1-1.1-0.7-1.7c0-0.1,0-0.1,0.1-0.2v-0.1c0.4-0.6,1.2-0.8,1.8-0.5
		c0,0,0.1,0.1,0.1,0.1l2.4,1.8l-0.4-2.9c-0.1-0.7,0.4-1.4,1.1-1.5c0.1,0,0.1,0,0.2,0l0,0c0.7,0,1.3,0.6,1.3,1.3c0,0.1,0,0.1,0,0.2
		l-0.4,2.9l2.4-1.8c0.6-0.4,1.4-0.3,1.8,0.2c0,0,0.1,0.1,0.1,0.1v0.1c0.4,0.6,0.2,1.4-0.5,1.8c0,0-0.1,0.1-0.2,0.1l-2.7,1.1l2.7,1.1
		c0.7,0.3,1,1.1,0.7,1.7c0,0.1,0,0.1-0.1,0.2v0.1c-0.4,0.6-1.2,0.8-1.8,0.5C268.6,154.1,268.5,154,268.5,154z"/>
	<path class="st1" d="M303.9,150.5c0,0-4.3,5.4-9.6,5.4s-9.6-5.4-9.6-5.4s4.3-5.4,9.6-5.4S303.9,150.5,303.9,150.5z"/>
	<path class="st3" d="M297.6,150.5c0,1.8-1.5,3.3-3.3,3.3s-3.3-1.5-3.3-3.3c0-1.8,1.5-3.3,3.3-3.3S297.6,148.7,297.6,150.5
		L297.6,150.5z"/>
	<path class="st12" d="M185.7,183.6h8.8c2.2,0,4,1.8,4,4v11.3c0,2.2-1.8,4-4,4h-8.8c-2.2,0-4-1.8-4-4v-11.3
		C181.7,185.4,183.5,183.6,185.7,183.6z"/>
	<path class="st12" d="M204.4,183.6h8.8c2.2,0,4,1.8,4,4v11.3c0,2.2-1.8,4-4,4h-8.8c-2.2,0-4-1.8-4-4v-11.3
		C200.4,185.4,202.2,183.6,204.4,183.6z"/>
	<path class="st12" d="M223,183.6h8.8c2.2,0,4,1.8,4,4v11.3c0,2.2-1.8,4-4,4H223c-2.2,0-4-1.8-4-4v-11.3
		C219,185.4,220.8,183.6,223,183.6z"/>
	<path class="st12" d="M241.6,183.6h8.8c2.2,0,4,1.8,4,4v11.3c0,2.2-1.8,4-4,4h-8.8c-2.2,0-4-1.8-4-4v-11.3
		C237.6,185.4,239.4,183.6,241.6,183.6z"/>
	<path class="st12" d="M260.2,183.6h8.8c2.2,0,4,1.8,4,4v11.3c0,2.2-1.8,4-4,4h-8.8c-2.2,0-4-1.8-4-4v-11.3
		C256.3,185.4,258.1,183.6,260.2,183.6z"/>
	<path class="st12" d="M278.9,183.6h8.8c2.2,0,4,1.8,4,4v11.3c0,2.2-1.8,4-4,4h-8.8c-2.2,0-4-1.8-4-4v-11.3
		C274.9,185.4,276.7,183.6,278.9,183.6z"/>
	<path class="st12" d="M195,205.9h8.8c2.2,0,4,1.8,4,4v11.3c0,2.2-1.8,4-4,4H195c-2.2,0-4-1.8-4-4v-11.3
		C191.1,207.7,192.8,205.9,195,205.9z"/>
	<path class="st12" d="M213.7,205.9h8.8c2.2,0,4,1.8,4,4v11.3c0,2.2-1.8,4-4,4h-8.8c-2.2,0-4-1.8-4-4v-11.3
		C209.7,207.7,211.5,205.9,213.7,205.9z"/>
	<path class="st12" d="M232.3,205.9h8.8c2.2,0,4,1.8,4,4v11.3c0,2.2-1.8,4-4,4h-8.8c-2.2,0-4-1.8-4-4v-11.3
		C228.3,207.7,230.1,205.9,232.3,205.9z"/>
	<path class="st12" d="M250.9,205.9h8.8c2.2,0,4,1.8,4,4v11.3c0,2.2-1.8,4-4,4h-8.8c-2.2,0-4-1.8-4-4v-11.3
		C247,207.7,248.7,205.9,250.9,205.9z"/>
	<path class="st12" d="M269.6,205.9h8.8c2.2,0,4,1.8,4,4v11.3c0,2.2-1.8,4-4,4h-8.8c-2.2,0-4-1.8-4-4v-11.3
		C265.6,207.7,267.4,205.9,269.6,205.9z"/>
	<path class="st12" d="M185.7,228.2h8.8c2.2,0,4,1.8,4,4v11.3c0,2.2-1.8,4-4,4h-8.8c-2.2,0-4-1.8-4-4v-11.3
		C181.7,230,183.5,228.2,185.7,228.2z"/>
	<path class="st12" d="M204.4,228.2h8.8c2.2,0,4,1.8,4,4v11.3c0,2.2-1.8,4-4,4h-8.8c-2.2,0-4-1.8-4-4v-11.3
		C200.4,230,202.2,228.2,204.4,228.2z"/>
	<path class="st12" d="M223,228.2h8.8c2.2,0,4,1.8,4,4v11.3c0,2.2-1.8,4-4,4H223c-2.2,0-4-1.8-4-4v-11.3
		C219,230,220.8,228.2,223,228.2z"/>
	<path class="st12" d="M241.6,228.2h8.8c2.2,0,4,1.8,4,4v11.3c0,2.2-1.8,4-4,4h-8.8c-2.2,0-4-1.8-4-4v-11.3
		C237.6,230,239.4,228.2,241.6,228.2z"/>
	<path class="st12" d="M260.2,228.2h8.8c2.2,0,4,1.8,4,4v11.3c0,2.2-1.8,4-4,4h-8.8c-2.2,0-4-1.8-4-4v-11.3
		C256.3,230,258.1,228.2,260.2,228.2z"/>
	<path class="st12" d="M278.9,228.2h8.8c2.2,0,4,1.8,4,4v11.3c0,2.2-1.8,4-4,4h-8.8c-2.2,0-4-1.8-4-4v-11.3
		C274.9,230,276.7,228.2,278.9,228.2z"/>
	<path class="st12" d="M195,250.5h8.8c2.2,0,4,1.8,4,4v11.3c0,2.2-1.8,4-4,4H195c-2.2,0-4-1.8-4-4v-11.3
		C191.1,252.3,192.8,250.5,195,250.5z"/>
	<path class="st12" d="M213.7,250.5h8.8c2.2,0,4,1.8,4,4v11.3c0,2.2-1.8,4-4,4h-8.8c-2.2,0-4-1.8-4-4v-11.3
		C209.7,252.3,211.5,250.5,213.7,250.5z"/>
	<path class="st12" d="M232.3,250.5h8.8c2.2,0,4,1.8,4,4v11.3c0,2.2-1.8,4-4,4h-8.8c-2.2,0-4-1.8-4-4v-11.3
		C228.3,252.3,230.1,250.5,232.3,250.5z"/>
	<path class="st12" d="M250.9,250.5h8.8c2.2,0,4,1.8,4,4v11.3c0,2.2-1.8,4-4,4h-8.8c-2.2,0-4-1.8-4-4v-11.3
		C247,252.3,248.7,250.5,250.9,250.5z"/>
	<path class="st12" d="M269.6,250.5h8.8c2.2,0,4,1.8,4,4v11.3c0,2.2-1.8,4-4,4h-8.8c-2.2,0-4-1.8-4-4v-11.3
		C265.6,252.3,267.4,250.5,269.6,250.5z"/>
	
		<ellipse transform="matrix(0.6044 -0.7967 0.7967 0.6044 18.4557 225.6313)" class="st1" cx="236.4" cy="94.2" rx="27.9" ry="27.9"/>
	<path class="st12" d="M236.4,122.1c6.1,0,13.3-3,18.1-6.7c-6.5-2.4-10.1-5.7-18.7-5.7c-8.4,0-12.9,3.9-17.6,5.6
		C223.3,119.7,229.8,122.1,236.4,122.1z"/>
	<circle class="st12" cx="235.7" cy="93.8" r="11"/>
</g>
<g id="freepik--Character--inject-39">
	<path class="st2" d="M94.1,211.4c2-4.9-2.9-19.6-5.1-25.6c-0.4-1.2-1.7-1.8-2.9-1.4c-0.3,0.1-0.5,0.3-0.7,0.4
		c-2,1.8-4.4,5.2-4.8,11.6c0,0-15.3,26.9-15.3,39.1c0,11.5,22.7,35.4,22.7,35.4c2.6-0.8,4.7-2.5,6.1-4.9c0,0-8.5-21-15.1-30
		C79,236.2,91.8,216.8,94.1,211.4z"/>
	<g>
		<defs>
			<path id="SVGID_7_" d="M94.1,211.4c2-4.9-2.9-19.6-5.1-25.6c-0.4-1.2-1.7-1.8-2.9-1.4c-0.3,0.1-0.5,0.3-0.7,0.4
				c-2,1.8-4.4,5.2-4.8,11.6c0,0-15.3,26.9-15.3,39.1c0,11.5,22.7,35.4,22.7,35.4c2.6-0.8,4.7-2.5,6.1-4.9c0,0-8.5-21-15.1-30
				C79,236.2,91.8,216.8,94.1,211.4z"/>
		</defs>
		<clipPath id="SVGID_8_">
			<use xlink:href="#SVGID_7_"  style="overflow:visible;"/>
		</clipPath>
		<g class="st13">
			<path class="st14" d="M91.5,219.3c0,0-7.3-15.5-10-14.1s-9.8,27.5-7.1,31.7s17.5,33.5,21.2,32.9S91.5,219.3,91.5,219.3z"/>
		</g>
	</g>
	<path class="st0" d="M94.1,211.4c2-4.9-2.9-19.6-5.1-25.6c-0.4-1.2-1.7-1.8-2.9-1.4c-0.3,0.1-0.5,0.3-0.7,0.4
		c-2,1.8-4.4,5.2-4.8,11.6c0,0-15.3,26.9-15.3,39.1c0,11.5,22.7,35.4,22.7,35.4c2.6-0.8,4.7-2.5,6.1-4.9c0,0-8.5-21-15.1-30
		C79,236.2,91.8,216.8,94.1,211.4z"/>
	<path class="st1" d="M92.2,264.3l3.4,5.5c0,0,10.7,3.3,11.8,6.9s-4.4,8.5-7.6,7.5s-8.6-10.8-8.6-10.8l-4.3-5L92.2,264.3z"/>
	<path class="st12" d="M85.4,269.7l2.3,2.7c3.2-0.9,6-3,7.8-5.9l-1.4-3.3C94.1,263.1,92.1,267.7,85.4,269.7z"/>
	<path class="st9" d="M99.1,416.9l-3,12.5c-0.4,1.5,0.6,3.1,2.1,3.4c0.2,0.1,0.4,0.1,0.7,0.1h17.5c1.6,0,2.9-1.3,2.9-2.8
		c0-0.2,0-0.3,0-0.5c-0.3-1.9-1.3-3.6-2.9-4.6c-4-2.6-5.9-10.7-5.9-10.7L99.1,416.9z"/>
	<path class="st9" d="M142.3,418.9c0,0-2.8,4.1-3.3,11.3c-0.1,1.3,1,2.5,2.3,2.5c0,0,0.1,0,0.1,0h31.1c1.6,0,2.9-1.3,2.9-2.9
		c0-0.9-0.4-1.7-1.1-2.3c-1.3-1-2.9-1.6-4.5-1.7c-7.6-1-14.4-4.5-15.6-9L142.3,418.9z"/>
	<path class="st15" d="M94.1,266.2c0,0-3.5,14.6-2.1,46l0.9,35.6c0,0-5.1,25,4.7,70.3c0,0,3,6.7,15.1-1.7l1.4-69.1l12.7-76.3
		L94.1,266.2z"/>
	<g>
		<defs>
			<path id="SVGID_9_" d="M94.1,266.2c0,0-3.5,14.6-2.1,46l0.9,35.6c0,0-5.1,25,4.7,70.3c0,0,3,6.7,15.1-1.7l1.4-69.1l12.7-76.3
				L94.1,266.2z"/>
		</defs>
		<clipPath id="SVGID_10_">
			<use xlink:href="#SVGID_9_"  style="overflow:visible;"/>
		</clipPath>
		<g class="st16">
			<path class="st14" d="M119.2,298.3c0,0-5.2,20.6-7.2,32.6s-14.4,11.1-15.9,19s13-1.4,11.6,27s-6.5,43.9,1.5,43.7
				s8.2-22.6,8.2-22.6l4.8-68.2v-9.5l1.2-18L119.2,298.3z"/>
		</g>
	</g>
	<path class="st0" d="M94.1,266.2c0,0-3.5,14.6-2.1,46l0.9,35.6c0,0-5.1,25,4.7,70.3c0,0,3,6.7,15.1-1.7l1.4-69.1l12.7-76.3
		L94.1,266.2z"/>
	<path class="st0" d="M96.1,355.5c-0.5,0.7-1,1.5-1.5,2.2"/>
	<path class="st0" d="M96.7,347.7c0,0,11.6-2.8,12.4,0c0.7,2.4-5.6-0.4-11.8,6.3"/>
	<path class="st15" d="M116.8,303.3c9,14.5,21.7,43.1,21.7,43.1s-1.9,3.3,0,8.9c0,0-5,19.3,2.2,65.5c0,0,6.2,4,15.3-3
		c0,0,4.5-69.4,2.8-78.8s-18-71.2-18-71.2H105"/>
	<g>
		<defs>
			<path id="SVGID_11_" d="M116.8,303.3c9,14.5,21.7,43.1,21.7,43.1s-1.9,3.3,0,8.9c0,0-5,19.3,2.2,65.5c0,0,6.2,4,15.3-3
				c0,0,4.5-69.4,2.8-78.8s-18-71.2-18-71.2H105"/>
		</defs>
		<clipPath id="SVGID_12_">
			<use xlink:href="#SVGID_11_"  style="overflow:visible;"/>
		</clipPath>
		<g class="st17">
			<path class="st14" d="M114.8,304.3c0,0,5.4,2.8,15.9,0s1.8,9,5.2,21.8s13.2,18.7,11.6,24.3s-6.2,6.9-7.2,21.9s12.1,42.5,6.9,48.1
				s-17.6-7.7-17.6-7.7L119.2,342L114.8,304.3z"/>
		</g>
	</g>
	<path class="st0" d="M116.8,303.3c9,14.5,21.7,43.1,21.7,43.1s-1.9,3.3,0,8.9c0,0-5,19.3,2.2,65.5c0,0,6.2,4,15.3-3
		c0,0,4.5-69.4,2.8-78.8s-18-71.2-18-71.2H105"/>
	<path class="st0" d="M145.1,348.9c4.1-0.6,9.4-1,9.1,0.9c-0.3,3.1-7.7,0-12.1,5.2"/>
	<path class="st0" d="M140.4,349.8c0,0,0.7-0.2,1.8-0.4"/>
	<path class="st1" d="M169,169.7l0.6-6.6c0,0-1.3-6.9-0.6-9.2s6.4-17.1,8.2-16.4s-2.7,8.7-2.6,11c0,0,2.4,0.1,3,1.7
		c0,0,2.3,0.4,2.4,2.5c1.1,0.7,1.8,2,1.7,3.4c-0.2,2.2-4.7,8.2-4.7,8.2l0.3,8.6L169,169.7z"/>
	<path class="st1" d="M130.7,158.6c0,0-2.6-5-2.9-6.9c-0.3-1.3,0.3-4,0-5.3c-0.6-3.1-4.9-11.4-4.9-11.4c-0.2-0.4-0.4-0.7-0.8-0.9
		l-2.5,3.1h-6.8l-10.4,13.7l5.1,12.3l-1.5,1.8c0.9,0.9,1.5,1.4,1.5,1.4l-1.5,8.9l14.6,1.5l0.3-5.7h4.4c1.2,0,2.3-1,2.3-2.3V161
		l2-0.6c0.7-0.2,1.2-0.9,1-1.6C130.7,158.7,130.7,158.6,130.7,158.6z"/>
	<path class="st9" d="M95.3,154.1c5.9,8.7,12.2,12.1,12.2,12.1l2.5-6.2c0,0-5-0.5-4.2-5.4c1.2-7.2,7-0.7,7-0.7l1.3-5.5
		c0,0,3.1-3.3,2.9-4.5c-0.2-0.8-0.4-1.7-0.7-2.5c0,0,11.2-10.7,10.1-16.7c0,0-9.4,1.9-20.5,4C92.2,131.2,88.7,144.4,95.3,154.1z"/>
	<path class="st2" d="M125.5,171c0,0-7.8-1.3-10.8-5s-0.6,0.3,0.8,2.5C118.4,173.3,121,171,125.5,171z"/>
	<path class="st18" d="M120.7,159.7c1.1,1.2,2.7,1.9,4.4,1.6"/>
	<path class="st2" d="M126.4,150.2c0,0.7-0.3,1.3-0.6,1.3s-0.6-0.6-0.6-1.3s0.3-1.3,0.6-1.3S126.4,149.5,126.4,150.2z"/>
	<path class="st18" d="M126.2,146.5c-1.7-0.4-3.4,0.5-4,2.1"/>
	<path class="st12" d="M98.4,179.1c0,0,0-6.8,11.8-5.8c14.3,1.3,20.1,8.6,20.1,8.6L98.4,179.1z"/>
	<path class="st2" d="M121.6,177.8c8.9,1,24.5,3.1,23.6,27.2s-4.4,62.8-4.4,62.8s-44.7,19.1-49.7,1.4c0,0,2.3-20-5.1-51.1
		S81.9,173.5,121.6,177.8z"/>
	<g>
		<defs>
			<path id="SVGID_13_" d="M121.6,177.8c8.9,1,24.5,3.1,23.6,27.2s-4.4,62.8-4.4,62.8s-44.7,19.1-49.7,1.4c0,0,2.3-20-5.1-51.1
				S81.9,173.5,121.6,177.8z"/>
		</defs>
		<clipPath id="SVGID_14_">
			<use xlink:href="#SVGID_13_"  style="overflow:visible;"/>
		</clipPath>
		<g class="st19">
			<path class="st14" d="M147.4,245.2c0,0-5.8,1.4-23.7-8.3c-28-15.3-31.1-37.7-39-34s7.8,75.9,7.8,75.9l29,1.8h26.9L147.4,245.2z"
				/>
		</g>
	</g>
	<path class="st0" d="M121.6,177.8c8.9,1,24.5,3.1,23.6,27.2s-4.4,62.8-4.4,62.8s-44.7,19.1-49.7,1.4c0,0,2.3-20-5.1-51.1
		S81.9,173.5,121.6,177.8z"/>
	<path class="st20" d="M70,235.2c-0.5,0.1-1,0.3-1.6,0.4"/>
	<path class="st20" d="M77.4,235.7c0,0-1.9-1.3-6-0.7"/>
	<path class="st2" d="M125,178.3c0,0,15.5,0.1,22.4,4.3c0,0,12.2-2.1,17.1,0l4.4-16.4c0,0,5.8-2.8,8.6,1.4c0,0,2.1,25-1.4,27.1
		s-30.9,8.3-30.9,8.3S127.6,197.6,125,178.3z"/>
	<g>
		<defs>
			<path id="SVGID_15_" d="M125,178.3c0,0,15.5,0.1,22.4,4.3c0,0,12.2-2.1,17.1,0l4.4-16.4c0,0,5.8-2.8,8.6,1.4c0,0,2.1,25-1.4,27.1
				s-30.9,8.3-30.9,8.3S127.6,197.6,125,178.3z"/>
		</defs>
		<clipPath id="SVGID_16_">
			<use xlink:href="#SVGID_15_"  style="overflow:visible;"/>
		</clipPath>
		<g class="st21">
			<path class="st14" d="M145,198.6c0,0-0.8-6.4,11-5.6s21,1.1,22.2-4.5s14.1-15.1,10,2.8l-4.2,18l-24.8,1.6L145,198.6z"/>
		</g>
	</g>
	<path class="st0" d="M125,178.3c0,0,15.5,0.1,22.4,4.3c0,0,12.2-2.1,17.1,0l4.4-16.4c0,0,5.8-2.8,8.6,1.4c0,0,2.1,25-1.4,27.1
		s-30.9,8.3-30.9,8.3S127.6,197.6,125,178.3z"/>
	<path class="st20" d="M167.4,183.8c1.3,1.1,2.5,2.4,3.4,3.9"/>
	<path class="st20" d="M164.9,182.7c0.4,0,0.7,0.1,1.1,0.2"/>
	<path class="st20" d="M85.6,211c-0.5-5.2-2-14.7-1.4-21.3"/>
	<path class="st20" d="M81.5,198.6c0,0,2.7,16,4,16"/>
	<line class="st20" x1="91.2" y1="258.1" x2="91.2" y2="267"/>
	<path class="st3" d="M106.4,280.6c0,0,1.4,10.1,5.9,16.4"/>
	<path class="st12" d="M167.6,164.2l-1,3.7c0,0,6.8-1.6,12.7,1.6l-0.6-4.4C178.8,165.2,174.9,162.3,167.6,164.2z"/>
	<path class="st20" d="M130.7,260.1c-4.9,2.2-14.5,4.1-33.5,2.2"/>
	<path class="st20" d="M135.6,256.2c-0.4,0.9-1.1,1.7-1.9,2.3"/>
	<path class="st20" d="M149,183l7.9,4.9"/>
	<path class="st20" d="M136.7,224.1c5-5.9,8.2-13.3,9-21"/>
	<path class="st20" d="M132.1,222.6c-6.4,7.4-14.4,13.3-23.4,17.1"/>
	<path class="st20" d="M136,217.5c-0.8,1.1-1.5,2.1-2.4,3.2"/>
	<path class="st20" d="M138.4,213.9c-0.4,0.6-0.8,1.3-1.2,1.9"/>
	<path class="st20" d="M95.2,252c10.1,4.6,21.4,6.2,32.4,4.4"/>
	<path class="st20" d="M122.2,127.8c1-0.4,2-1,2.9-1.7"/>
	<path class="st20" d="M97.9,151.4c0,0-5.6-10.2,0.9-15.7c4.9-4.2,13.6-4.6,20.6-6.8"/>
	<path class="st20" d="M102.6,144.2c-0.6-1.9-0.2-4,1.2-5.4c3.8-3.6,14.9-4,20.5-9.5"/>
	<path class="st20" d="M104.8,148.9c-0.5-0.6-0.9-1.3-1.2-2"/>
</g>
</svg>
