<svg id="Capa_1" enable-background="new 0 0 512 512" height="512" viewBox="0 0 512 512" width="512" xmlns="http://www.w3.org/2000/svg" xmlns:xlink="http://www.w3.org/1999/xlink"><linearGradient id="SVGID_1_" gradientUnits="userSpaceOnUse" x1="256" x2="256" y1="512" y2="0"><stop offset="0" stop-color="#fd3a84"/><stop offset="1" stop-color="#ffa68d"/></linearGradient><linearGradient id="SVGID_2_" gradientUnits="userSpaceOnUse" x1="256" x2="256" y1="452" y2="60"><stop offset="0" stop-color="#ffc2cc"/><stop offset="1" stop-color="#fff2f4"/></linearGradient><g><g><g><path d="m507.569 145.068-141.699-140.712c-2.81-2.79-6.61-4.356-10.57-4.356h-198.6c-3.96 0-7.759 1.566-10.569 4.356l-141.7 140.7c-2.836 2.816-4.431 6.648-4.431 10.644v200.589c0 3.997 1.595 7.828 4.431 10.644l141.7 140.711c2.81 2.79 6.609 4.356 10.569 4.356h198.6c3.96 0 7.759-1.566 10.569-4.356l141.7-140.7c2.836-2.816 4.431-6.647 4.431-10.644v-200.589c0-3.996-1.595-7.827-4.431-10.643z" fill="url(#SVGID_1_)"/></g></g><g><g><path d="m447.557 169.9-106.557-105.556c-2.809-2.783-6.603-4.344-10.557-4.344h-148.886c-3.954 0-7.748 1.561-10.557 4.344l-106.557 105.556c-2.843 2.817-4.443 6.654-4.443 10.657v150.887c0 4.003 1.6 7.839 4.443 10.656l106.557 105.556c2.809 2.782 6.603 4.344 10.557 4.344h148.887c3.954 0 7.748-1.561 10.557-4.344l106.556-105.556c2.844-2.817 4.443-6.654 4.443-10.656v-150.887c0-4.003-1.6-7.84-4.443-10.657zm-131.557 222.1h-120c-8.284 0-15-6.716-15-15s6.716-15 15-15c8.271 0 15-6.729 15-15v-92c0-8.271-6.729-15-15-15-8.284 0-15-6.716-15-15s6.716-15 15-15h60c-24.813 0-45-20.187-45-45s20.187-45 45-45 45 20.187 45 45-20.187 45-45 45h30c8.284 0 15 6.716 15 15v122c0 8.271 6.729 15 15 15 8.284 0 15 6.716 15 15s-6.716 15-15 15z" fill="url(#SVGID_2_)"/></g></g></g></svg>