<svg id="Capa_1" enable-background="new 0 0 512 512" height="512" viewBox="0 0 512 512" width="512" xmlns="http://www.w3.org/2000/svg" xmlns:xlink="http://www.w3.org/1999/xlink"><linearGradient id="SVGID_1_" gradientUnits="userSpaceOnUse" x1="256" x2="256" y1="452" y2="0"><stop offset="0" stop-color="#a93aff"/><stop offset="1" stop-color="#ff81ff"/></linearGradient><linearGradient id="SVGID_2_" gradientUnits="userSpaceOnUse" x1="301" x2="301" y1="512" y2="181"><stop offset="0" stop-color="#ffbef9"/><stop offset="1" stop-color="#fff1ff"/></linearGradient><g><g><g><g><path d="m466 422h-15v-226c0-8.284-6.716-15-15-15h-75l-16 25h-58l-16-25h-75c-8.284 0-15 6.716-15 15v226h-15c-8.271 0-15-6.729-15-15v-347c0-33.084-26.916-60-60-60h-45c-8.284 0-15 6.716-15 15s6.716 15 15 15h45c16.542 0 30 13.458 30 30v347c0 24.813 20.187 45 45 45h300c8.284 0 15-6.716 15-15s-6.716-15-15-15z" fill="url(#SVGID_1_)"/></g></g></g><g><g><path d="m196 422c-24.813 0-45 20.187-45 45s20.187 45 45 45 45-20.187 45-45-20.187-45-45-45zm165-241h-90v105c0 5.199 2.692 10.027 7.114 12.76s9.944 2.982 14.594.657l23.292-11.646 23.292 11.646c4.667 2.333 10.19 2.066 14.594-.657 4.423-2.733 7.114-7.561 7.114-12.76zm45 241c-24.813 0-45 20.187-45 45s20.187 45 45 45 45-20.187 45-45-20.187-45-45-45z" fill="url(#SVGID_2_)"/></g></g></g></svg>