<svg id="Capa_1" enable-background="new 0 0 512.001 512.001" height="512" viewBox="0 0 512.001 512.001" width="512" xmlns="http://www.w3.org/2000/svg" xmlns:xlink="http://www.w3.org/1999/xlink"><linearGradient id="SVGID_1_" gradientUnits="userSpaceOnUse" x1="256" x2="256" y1="512.001" y2="0"><stop offset="0" stop-color="#fd5900"/><stop offset="1" stop-color="#ffde00"/></linearGradient><linearGradient id="SVGID_2_" gradientUnits="userSpaceOnUse" x1="255.5" x2="255.5" y1="391" y2="61"><stop offset="0" stop-color="#ffe59a"/><stop offset="1" stop-color="#ffffd5"/></linearGradient><g><g><g><path d="m405.5 0h-300c-57.897 0-105 47.551-105 106v240c0 52.805 39.183 96.631 90 103.932v47.183c.001.007.001.012.001.019v.056c-.398-.955.076 13.108 13.178 14.701 4.462.545 9.114-.924 12.498-4.354.006-.007 55.609-56.537 55.609-56.537h233.714c58.448 0 106-47.103 106-105v-240c0-58.155-48.067-106-106-106z" fill="url(#SVGID_1_)"/></g></g><g><g><path d="m163.252 310.844-21.769-3.163-9.734-19.725c-2.526-5.12-7.741-8.362-13.451-8.362-5.709 0-10.924 3.242-13.451 8.361l-9.735 19.726-21.769 3.163c-5.65.821-10.344 4.779-12.108 10.209s-.293 11.391 3.795 15.376l15.752 15.354-3.718 21.681c-.965 5.627 1.349 11.315 5.968 14.671s10.741 3.799 15.797 1.142l19.47-10.236 19.47 10.236c5.082 2.671 11.203 2.196 15.797-1.142 4.619-3.356 6.933-9.043 5.968-14.671l-3.719-21.68 15.752-15.354c4.088-3.985 5.56-9.946 3.795-15.376s-6.459-9.388-12.11-10.21zm137.203 0-21.769-3.163-9.735-19.726c-2.527-5.12-7.742-8.361-13.451-8.361-5.71 0-10.925 3.242-13.451 8.362l-9.734 19.725-21.77 3.163c-5.65.821-10.345 4.779-12.108 10.209-1.765 5.43-.293 11.391 3.796 15.377l15.752 15.354-3.719 21.68c-.965 5.628 1.349 11.315 5.968 14.671 4.618 3.356 10.742 3.8 15.797 1.142l19.47-10.236 19.47 10.236c5.082 2.671 11.203 2.196 15.797-1.142 4.619-3.356 6.933-9.043 5.968-14.671l-3.719-21.68 15.752-15.354c4.089-3.985 5.561-9.946 3.796-15.377-1.765-5.43-6.459-9.387-12.11-10.209zm149.311 10.209c-1.765-5.43-6.458-9.388-12.108-10.209l-21.769-3.163-9.735-19.726c-2.527-5.12-7.742-8.361-13.451-8.361-5.71 0-10.925 3.242-13.451 8.362l-9.734 19.725-21.769 3.163c-5.65.821-10.344 4.779-12.108 10.209s-.293 11.391 3.795 15.376l15.752 15.354-3.719 21.68c-.965 5.628 1.349 11.315 5.968 14.671 4.609 3.349 10.733 3.804 15.797 1.142l19.47-10.236 19.472 10.236c5.055 2.657 11.179 2.214 15.797-1.142 4.619-3.356 6.932-9.044 5.967-14.671l-3.719-21.68 15.752-15.354c4.086-3.985 5.558-9.946 3.793-15.376zm-149.266-215.053c0-24.813-20.187-45-45-45s-45 20.187-45 45 20.187 45 45 45 45-20.187 45-45zm-45 45c-41.355 0-75 33.645-75 75 0 8.284 6.716 15 15 15h120c8.284 0 15-6.716 15-15 0-41.355-33.644-75-75-75z" fill="url(#SVGID_2_)"/></g></g></g></svg>