<svg id="Capa_1" enable-background="new 0 0 512 512" height="512" viewBox="0 0 512 512" width="512" xmlns="http://www.w3.org/2000/svg" xmlns:xlink="http://www.w3.org/1999/xlink"><linearGradient id="SVGID_1_" gradientUnits="userSpaceOnUse" x1="236" x2="236" y1="512" y2="72"><stop offset="0" stop-color="#a93aff"/><stop offset="1" stop-color="#ff81ff"/></linearGradient><linearGradient id="SVGID_2_" gradientUnits="userSpaceOnUse" x1="271" x2="271" y1="451" y2="0"><stop offset="0" stop-color="#ffbef9"/><stop offset="1" stop-color="#fff1ff"/></linearGradient><g><g><g><path d="m346 91h-15l-26-19h-154l-30 19h-15c-8.284 0-15 6.716-15 15v210c0 2.329.542 4.625 1.584 6.708l28.416 56.833v117.459c0 8.284 6.716 15 15 15h180c8.284 0 15-6.716 15-15v-106l20-11.459 28.416-56.833c1.042-2.083 1.584-4.38 1.584-6.708v-210c0-8.284-26.716-15-35-15z" fill="url(#SVGID_1_)"/></g></g><g><g><path d="m286 151h-120c-8.284 0-15 6.716-15 15v90c0 8.284 6.716 15 15 15h120c8.284 0 15-6.716 15-15v-90c0-8.284-6.716-15-15-15zm90-60h-30c8.284 0 15 6.716 15 15v210c0 2.329-.542 4.625-1.584 6.708l-28.416 56.833v11.459h45c24.813 0 45-20.187 45-45v-210c0-24.813-20.187-45-45-45zm-45-46c0-8.271 6.729-15 15-15h.343c8.284 0 15-6.716 15-15s-6.716-15-15-15h-180.411c-24.776 0-44.932 20.187-44.932 45v46h210zm-135 256c-8.284 0-15 6.716-15 15s6.716 15 15 15 15-6.716 15-15-6.716-15-15-15zm0 60c-8.284 0-15 6.716-15 15s6.716 15 15 15 15-6.716 15-15-6.716-15-15-15zm0 60c-8.284 0-15 6.716-15 15s6.716 15 15 15 15-6.716 15-15-6.716-15-15-15zm60-120c-8.284 0-15 6.716-15 15s6.716 15 15 15 15-6.716 15-15-6.716-15-15-15zm0 60c-8.284 0-15 6.716-15 15s6.716 15 15 15 15-6.716 15-15-6.716-15-15-15zm0 60c-8.284 0-15 6.716-15 15s6.716 15 15 15 15-6.716 15-15-6.716-15-15-15z" fill="url(#SVGID_2_)"/></g></g></g></svg>