<svg id="Capa_1" enable-background="new 0 0 512 512" height="512" viewBox="0 0 512 512" width="512" xmlns="http://www.w3.org/2000/svg" xmlns:xlink="http://www.w3.org/1999/xlink"><linearGradient id="SVGID_1_" gradientUnits="userSpaceOnUse" x1="256" x2="256" y1="436" y2="151"><stop offset="0" stop-color="#a93aff"/><stop offset="1" stop-color="#ff81ff"/></linearGradient><linearGradient id="SVGID_2_" gradientUnits="userSpaceOnUse" x1="256" x2="256" y1="376" y2="76"><stop offset="0" stop-color="#ffbef9"/><stop offset="1" stop-color="#fff1ff"/></linearGradient><g><g><g><path d="m497 151h-482c-8.284 0-15 21.716-15 30v240c0 8.284 6.716 15 15 15h91c8.284 0 15-6.716 15-15 0-8.271 6.729-15 15-15s15 6.729 15 15c0 8.284 6.716 15 15 15h331c8.284 0 15-6.716 15-15v-240c0-8.284-6.716-30-15-30z" fill="url(#SVGID_1_)"/></g></g><g><g><path d="m369.033 247.967c-5.857-5.858-15.355-5.857-21.213 0l-84.853 84.853c-5.858 5.858-5.858 15.355 0 21.213s15.355 5.857 21.213 0l84.853-84.853c5.858-5.858 5.858-15.355 0-21.213zm-98.033 23.033c8.284 0 15-6.716 15-15s-6.716-15-15-15-15 6.716-15 15 6.716 15 15 15zm90 60c-8.284 0-15 6.716-15 15s6.716 15 15 15 15-6.716 15-15-6.716-15-15-15zm-225-105c-8.284 0-15 6.716-15 15v30c0 8.284 6.716 15 15 15s15-6.716 15-15v-30c0-8.284-6.716-15-15-15zm0 90c-8.284 0-15 6.716-15 15v30c0 8.284 6.716 15 15 15s15-6.716 15-15v-30c0-8.284-6.716-15-15-15zm361-240h-331c-8.284 0-15 6.716-15 15 0 8.271-6.729 15-15 15s-15-6.729-15-15c0-8.284-6.716-15-15-15h-91c-8.284 0-15 6.716-15 15v90c0-8.284 6.716-15 15-15h91c8.284 0 15 6.716 15 15 0 8.271 6.729 15 15 15s15-6.729 15-15c0-8.284 6.716-15 15-15h331c8.284 0 15 6.716 15 15v-90c0-8.284-6.716-15-15-15z" fill="url(#SVGID_2_)"/></g></g></g></svg>