<svg id="Capa_1" enable-background="new 0 0 512 512" height="512" viewBox="0 0 512 512" width="512" xmlns="http://www.w3.org/2000/svg" xmlns:xlink="http://www.w3.org/1999/xlink"><linearGradient id="SVGID_1_" gradientUnits="userSpaceOnUse" x1="225.5" x2="225.5" y1="451" y2="0"><stop offset="0" stop-color="#5558ff"/><stop offset="1" stop-color="#00c0ff"/></linearGradient><linearGradient id="SVGID_2_" gradientUnits="userSpaceOnUse" x1="256" x2="256" y1="512" y2="30"><stop offset="0" stop-color="#addcff"/><stop offset=".5028" stop-color="#eaf6ff"/><stop offset="1" stop-color="#eaf6ff"/></linearGradient><g><g><g><path d="m401 39h-3.368l-6.632-9v-15c0-8.284-6.716-15-15-15s-15 6.716-15 15v15l-9.643 9h-104.057l-6.3-9v-15c0-8.284-6.716-15-15-15s-15 6.716-15 15v15l-7.941 9h-105.647l-7.412-9v-15c0-8.284-6.716-15-15-15s-15 6.716-15 15v15l-7.941 9h-11.059l-41 82v315c0 8.284 6.716 15 15 15h421c8.284 0 15-6.716 15-15v-315z" fill="url(#SVGID_1_)"/></g></g><g><g><path d="m451 45c0-8.284-6.716-15-15-15h-45v45c0 8.284-6.716 15-15 15s-15-6.716-15-15v-45h-120v45c0 8.284-6.716 15-15 15s-15-6.716-15-15v-45h-121v45c0 8.284-6.716 15-15 15s-15-6.716-15-15v-45h-45c-8.284 0-15 6.716-15 15v76h451zm-316 136h-60c-8.284 0-15 6.716-15 15v60c0 8.284 6.716 15 15 15h60c8.284 0 15-6.716 15-15v-60c0-8.284-6.716-15-15-15zm121 0h-60c-8.284 0-15 6.716-15 15v60c0 8.284 6.716 15 15 15h60c8.284 0 15-6.716 15-15v-60c0-8.284-6.716-15-15-15zm60 0c-8.284 0-15 6.716-15 15v60c0 8.284 6.716 15 15 15h60c8.284 0 15-6.716 15-15v-60c0-8.284-6.716-15-15-15zm-60 120h-60c-8.284 0-15 6.716-15 15v60c0 8.284 6.716 15 15 15h60c8.284 0 15-6.716 15-15v-60c0-8.284-6.716-15-15-15zm-121 0h-60c-8.284 0-15 6.716-15 15v60c0 8.284 6.716 15 15 15h60c8.284 0 15-6.716 15-15v-60c0-8.284-6.716-15-15-15zm271 0c-57.897 0-105 47.103-105 105 0 58.448 47.103 106 105 106 58.155 0 106-48.068 106-106 0-57.897-47.552-105-106-105zm30 120h-30c-8.284 0-15-6.716-15-15v-30c0-8.284 6.716-15 15-15s15 6.716 15 15v15h15c8.284 0 15 6.716 15 15s-6.716 15-15 15z" fill="url(#SVGID_2_)"/></g></g></g></svg>