<svg id="Capa_1" enable-background="new 0 0 512 512" height="512" viewBox="0 0 512 512" width="512" xmlns="http://www.w3.org/2000/svg" xmlns:xlink="http://www.w3.org/1999/xlink"><linearGradient id="SVGID_1_" gradientUnits="userSpaceOnUse" x1="261.831" x2="261.831" y1="424" y2="0"><stop offset="0" stop-color="#5558ff"/><stop offset="1" stop-color="#00c0ff"/></linearGradient><linearGradient id="SVGID_2_" gradientUnits="userSpaceOnUse" x1="256" x2="256" y1="512" y2="18.163"><stop offset="0" stop-color="#addcff"/><stop offset=".5028" stop-color="#eaf6ff"/><stop offset="1" stop-color="#eaf6ff"/></linearGradient><g><g><g><path d="m361.501 239c-6.331 0-12.513.638-18.487 1.85 9.187-17.973 15.177-37.841 17.209-58.85l-16.554-90c-27.089-54.491-83.102-92-147.668-92-26.991 0-52.489 6.554-75.004 18.163l-13.996 28.837-37.34 225c30.292 36.046 75.682 59 126.34 59 26.93 0 52.371-6.49 74.848-17.981-1.211 5.972-1.848 12.152-1.848 18.481 0 51.086 41.414 92.5 92.5 92.5s92.5-41.414 92.5-92.5-41.414-92.5-92.5-92.5z" fill="url(#SVGID_1_)"/></g></g><g><g><path d="m360.999 211c-66.168 0-120 53.832-120 120 0 80.919 105.678 173.437 110.176 177.335 2.819 2.443 6.321 3.665 9.824 3.665s7.005-1.221 9.824-3.665c4.498-3.899 110.176-96.416 110.176-177.335 0-66.168-53.832-120-120-120zm0 180c-33.084 0-60-26.916-60-60s26.916-60 60-60 60 26.916 60 60-26.916 60-60 60zm-74.994-209h74.218c.509-5.266.778-10.602.778-16 0-26.576-6.25-51.706-17.333-74h-57.664c-24.813 0-45 20.187-45 45s20.187 45 45.001 45zm-120.008-120h-30c-8.271 0-15-6.729-15-15v-28.837c-53.38 27.523-89.996 83.459-89.996 147.837 0 40.323 14.548 77.308 38.66 106h66.336c24.813 0 45-20.187 45-45s-20.187-45-45-45c-8.271 0-15-6.729-15-15s6.729-15 15-15h30c24.813 0 45-20.187 45-45s-20.186-45-45-45z" fill="url(#SVGID_2_)"/></g></g></g></svg>