<svg id="Capa_1" enable-background="new 0 0 511.984 511.984" height="512" viewBox="0 0 511.984 511.984" width="512" xmlns="http://www.w3.org/2000/svg" xmlns:xlink="http://www.w3.org/1999/xlink"><linearGradient id="SVGID_1_" gradientUnits="userSpaceOnUse" x1="215.984" x2="215.984" y1="465.992" y2="45.992"><stop offset="0" stop-color="#ffc2cc"/><stop offset="1" stop-color="#fff2f4"/></linearGradient><linearGradient id="SVGID_2_" gradientUnits="userSpaceOnUse" x1="255.992" x2="255.992" y1="375.992" y2="135.992"><stop offset="0" stop-color="#fd3a84"/><stop offset="1" stop-color="#ffa68d"/></linearGradient><g><g><g><path d="m361.984 171.721v-110.729c0-8.284-6.716-15-15-15s-15 6.716-15 15v21.449l-141.108 83.551h-40.892l-23 29v91.076l-51.978-.076c-4.021-.003-7.803 1.572-10.621 4.386-2.817 2.813-4.401 6.632-4.401 10.614v120c0 24.813 20.187 45 45 45s45-20.187 45-45v-45l10-14-10-16v-30h40.892l141.108 83.551v21.449c0 8.284 6.716 15 15 15s15-6.716 15-15v-110.73l10-26.271v-84z" fill="url(#SVGID_1_)"/></g></g><g><g><path d="m466.984 255.992h30c8.284 0 15-6.716 15-15s-6.716-15-15-15h-30c-8.284 0-15 6.716-15 15s6.716 15 15 15zm10.606 34.393c-5.857-5.857-15.355-5.857-21.213 0-5.858 5.858-5.858 15.355 0 21.213l30 30c5.858 5.858 15.355 5.858 21.213 0s5.858-15.355 0-21.213zm0-98.786 30-30c5.858-5.858 5.858-15.355 0-21.213-5.857-5.857-15.355-5.857-21.213 0l-30 30c-5.858 5.858-5.858 15.355 0 21.213 5.858 5.857 15.356 5.858 21.213 0zm-63.898 5.976-51.708-25.854v138.541l51.708-25.854c5.082-2.541 8.292-7.735 8.292-13.417v-60c0-5.681-3.21-10.875-8.292-13.416zm-248.708 148.417h-15v30h15c8.284 0 15-6.716 15-15s-6.716-15-15-15zm-15-180h-71.79c-40.513 0-77.702 30.669-78.189 74-.476 42.28 33.536 76 74.979 76h75z" fill="url(#SVGID_2_)"/></g></g></g></svg>