<svg id="Capa_1" enable-background="new 0 0 512 512" height="512" viewBox="0 0 512 512" width="512" xmlns="http://www.w3.org/2000/svg" xmlns:xlink="http://www.w3.org/1999/xlink"><linearGradient id="SVGID_1_" gradientUnits="userSpaceOnUse" x1="256" x2="256" y1="456" y2="0"><stop offset="0" stop-color="#fd3a84"/><stop offset="1" stop-color="#ffa68d"/></linearGradient><linearGradient id="SVGID_2_" gradientUnits="userSpaceOnUse" x1="256" x2="256" y1="512" y2="90.569"><stop offset="0" stop-color="#ffc2cc"/><stop offset="1" stop-color="#fff2f4"/></linearGradient><g><g><g><g><path d="m256 0c-99.252 0-180 81.196-180 181 0 46.893 28.882 106.329 85.844 176.656 10.88 13.433 21.714 25.928 31.811 37.085l9.488 29.499c16.56 17.07 27.967 30.943 28.857 31.76h45c.994-.913 15.104-17.276 34.858-38l6.488-23.259c10.097-11.157 20.931-23.653 31.811-37.085 56.961-70.327 85.843-129.763 85.843-176.656 0-99.804-80.748-181-180-181z" fill="url(#SVGID_1_)"/></g></g></g><g><g><path d="m318.346 394.741c-28.388 31.371-50.936 52.148-52.203 53.31-2.869 2.633-6.506 3.949-10.143 3.949s-7.274-1.316-10.143-3.949c-1.267-1.163-23.815-21.939-52.203-53.31-51.969 4.691-132.654 18.264-132.654 57.259 0 26.982 37.931 39.834 64.083 46.372 35.152 8.788 81.646 13.628 130.917 13.628s95.765-4.84 130.917-13.628c26.212-6.553 64.083-19.409 64.083-46.372 0-38.995-80.685-52.568-132.654-57.259zm-136.576-133.998c2.042 6.125 7.773 10.257 14.23 10.257h120c6.457 0 12.188-4.132 14.23-10.257l30-90c1.524-4.574.757-9.603-2.062-13.514s-7.346-6.229-12.168-6.229h-20.515l-26.068-52.136c-3.705-7.409-12.715-10.413-20.125-6.708s-10.413 12.715-6.708 20.125l19.36 38.72h-71.887l19.36-38.72c3.705-7.41.701-16.42-6.708-20.125-7.41-3.704-16.42-.701-20.125 6.708l-26.069 52.136h-20.515c-4.822 0-9.349 2.318-12.168 6.229-2.819 3.912-3.586 8.94-2.062 13.514z" fill="url(#SVGID_2_)"/></g></g></g></svg>