<svg id="Capa_1" enable-background="new 0 0 512 512" height="512" viewBox="0 0 512 512" width="512" xmlns="http://www.w3.org/2000/svg" xmlns:xlink="http://www.w3.org/1999/xlink"><linearGradient id="SVGID_1_" gradientUnits="userSpaceOnUse" x1="256" x2="256" y1="481" y2="31"><stop offset="0" stop-color="#fd5900"/><stop offset="1" stop-color="#ffde00"/></linearGradient><linearGradient id="SVGID_2_" gradientUnits="userSpaceOnUse" x1="256" x2="256" y1="211.211" y2="91.211"><stop offset="0" stop-color="#ffe59a"/><stop offset="1" stop-color="#ffffd5"/></linearGradient><g><g><g><path d="m377.584 153.575-236.127-1.21c-80.644 12.052-141.457 82.216-141.457 163.207 0 90.972 74.577 165.428 166 165.428h180c91.343 0 166-74.364 166-165.428 0-78.561-57.075-146.952-134.416-161.997zm-151.584-32.575c11.517 0 22.032-4.354 30-11.495 7.968 7.141 18.483 11.495 30 11.495 24.813 0 45-20.187 45-45s-20.187-45-45-45c-11.517 0-22.032 4.354-30 11.495-7.968-7.142-18.483-11.495-30-11.495-24.813 0-45 20.187-45 45s20.187 45 45 45z" fill="url(#SVGID_1_)"/></g></g><g><g><path d="m316 91.211h-120c-57.897 0-105 47.103-105 105 0 8.284 6.814 15 15.099 15 29.377 0 57.358-9.341 80.917-27.014 2.604-1.954 5.711-2.986 8.984-2.986h120c3.275 0 6.384 1.033 8.988 2.989 23.205 17.418 51.924 27.011 80.865 27.011h.147c8.284 0 15-6.716 15-15 0-57.897-47.103-105-105-105z" fill="url(#SVGID_2_)"/></g></g></g></svg>