<svg id="Capa_1" enable-background="new 0 0 512.067 512.067" height="512" viewBox="0 0 512.067 512.067" width="512" xmlns="http://www.w3.org/2000/svg" xmlns:xlink="http://www.w3.org/1999/xlink"><linearGradient id="SVGID_1_" gradientUnits="userSpaceOnUse" x1="317.067" x2="317.067" y1="390.034" y2=".034"><stop offset="0" stop-color="#00b59c"/><stop offset="1" stop-color="#9cffac"/></linearGradient><linearGradient id="SVGID_2_" gradientUnits="userSpaceOnUse" x1="211.033" x2="211.033" y1="512.033" y2="104.602"><stop offset="0" stop-color="#c3ffe8"/><stop offset=".9973" stop-color="#f0fff4"/></linearGradient><g><g><g><circle cx="317.067" cy="195.034" fill="url(#SVGID_1_)" r="195"/></g></g><g><g><path d="m182.876 310.415-170.706 45.921c-5.173 1.392-9.211 5.436-10.595 10.61-1.384 5.175.097 10.694 3.885 14.482l30.753 30.753-31.819 31.82c-5.858 5.858-5.858 15.355 0 21.213l42.426 42.426c5.856 5.857 15.356 5.858 21.213 0l31.82-31.82 25.607 25.607c3.723 3.723 9.124 5.223 14.236 3.948 5.109-1.274 9.176-5.134 10.715-10.17l50.706-165.922c1.595-5.217.231-10.888-3.561-14.81-3.79-3.92-9.411-5.476-14.68-4.058zm236.36-139.152c-2.819-3.911-7.348-6.229-12.169-6.229h-20.516l-26.068-52.136c-3.704-7.409-12.714-10.412-20.124-6.708-7.41 3.705-10.413 12.715-6.708 20.125l19.36 38.72h-71.888l19.36-38.72c3.705-7.41.702-16.42-6.708-20.125-7.406-3.703-16.419-.702-20.124 6.708l-26.068 52.136h-20.516c-4.821 0-9.35 2.318-12.169 6.229-2.819 3.912-3.586 8.94-2.062 13.514l30 90c2.042 6.125 7.774 10.257 14.23 10.257h120c6.456 0 12.188-4.132 14.23-10.257l30-90c1.526-4.574.759-9.603-2.06-13.514z" fill="url(#SVGID_2_)"/></g></g></g></svg>