<svg id="Capa_1" enable-background="new 0 0 512 512" height="512" viewBox="0 0 512 512" width="512" xmlns="http://www.w3.org/2000/svg" xmlns:xlink="http://www.w3.org/1999/xlink"><linearGradient id="SVGID_1_" gradientUnits="userSpaceOnUse" x1="256" x2="256" y1="482" y2="207"><stop offset="0" stop-color="#00b59c"/><stop offset="1" stop-color="#9cffac"/></linearGradient><linearGradient id="SVGID_2_" gradientUnits="userSpaceOnUse" x1="256" x2="256" y1="422.001" y2="30"><stop offset="0" stop-color="#c3ffe8"/><stop offset=".9973" stop-color="#f0fff4"/></linearGradient><g><g><g><path d="m508.823 217.769c-2.842-3.641-7.204-5.769-11.823-5.769h-18.559l-40.441-5-33.739 5h-296.522l-35.739-5-38.44 5h-18.56c-4.619 0-8.98 2.128-11.823 5.769-2.842 3.641-3.849 8.388-2.729 12.869l48.638 194.552c8.362 33.449 38.282 56.81 72.761 56.81h268.307c34.479 0 64.399-23.361 72.761-56.81l48.638-194.552c1.119-4.481.113-9.228-2.73-12.869z" fill="url(#SVGID_1_)"/></g></g><g><g><path d="m208.053 50.512-24.242-17.64c-6.675-4.857-16.02-3.407-20.91 3.242l-129.341 175.886h74.179l103.561-140.457c4.937-6.695 3.478-16.137-3.247-21.031zm141.047-14.397c-4.89-6.65-14.235-8.1-20.91-3.242l-24.243 17.64c-6.726 4.894-8.183 14.336-3.248 21.031l103.563 140.456h74.179zm-93.1 235.885c-8.284 0-15 6.716-15 15v120c0 8.284 6.716 15 15 15s15-6.716 15-15v-120c0-8.284-6.716-15-15-15zm106.86.116c-8.218-1.027-15.717 4.803-16.745 13.024l-15 120c-1.027 8.22 4.803 15.717 13.024 16.745 8.24 1.026 15.719-4.818 16.745-13.024l15-120c1.028-8.221-4.803-15.718-13.024-16.745zm-196.976 13.024c-1.028-8.22-8.532-14.051-16.745-13.024-8.221 1.028-14.051 8.524-13.024 16.745l15 120c1.026 8.207 8.506 14.051 16.745 13.024 8.221-1.028 14.051-8.524 13.024-16.745z" fill="url(#SVGID_2_)"/></g></g></g></svg>