<svg id="Capa_1" enable-background="new 0 0 512 512" height="512" viewBox="0 0 512 512" width="512" xmlns="http://www.w3.org/2000/svg" xmlns:xlink="http://www.w3.org/1999/xlink"><linearGradient id="SVGID_1_" gradientUnits="userSpaceOnUse" x1="211.5" x2="211.5" y1="512" y2="60"><stop offset="0" stop-color="#5558ff"/><stop offset="1" stop-color="#00c0ff"/></linearGradient><linearGradient id="SVGID_2_" gradientUnits="userSpaceOnUse" x1="256" x2="256" y1="512" y2="0"><stop offset="0" stop-color="#addcff"/><stop offset=".5028" stop-color="#eaf6ff"/><stop offset="1" stop-color="#eaf6ff"/></linearGradient><g><g><g><path d="m270 225 36-25-36-35c0-57.897-47.103-105-105-105s-105 47.103-105 105l-24 35 24 25c0 28.43 25.29 75.696 60 94.195v10.805h-45c-20.038 0-38.914 8.022-53.153 22.588-14.088 14.413-21.847 33.382-21.847 53.412v91c0 8.284 6.716 15 15 15h270v-182h-75v-10.805c34.616-18.449 60-65.746 60-94.195zm90 164v63h63v-63z" fill="url(#SVGID_1_)"/></g></g><g><g><path d="m165 30c64.198 0 118.068 45.046 131.677 105.188-14.984 1.66-26.677 14.394-26.677 29.812v60c0 16.542 13.458 30 30 30s30-13.458 30-30v-60c0-90.981-74.019-165-165-165s-165 74.019-165 165v90c0 24.813 20.187 45 45 45h120c8.284 0 15-6.716 15-15s-6.716-15-15-15h-120c-8.271 0-15-6.729-15-15 16.542 0 30-13.458 30-30v-60c0-15.418-11.693-28.152-26.677-29.812 13.61-60.142 67.479-105.188 131.677-105.188zm332 300h-212c-8.284 0-15 6.716-15 15v152c0 8.284 6.716 15 15 15h212c8.284 0 15-6.716 15-15v-152c0-8.284-6.716-15-15-15zm-106 106c-8.284 0-15-6.716-15-15s6.716-15 15-15 15 6.716 15 15-6.716 15-15 15z" fill="url(#SVGID_2_)"/></g></g></g></svg>