<svg id="Capa_1" enable-background="new 0 0 512 512" height="512" viewBox="0 0 512 512" width="512" xmlns="http://www.w3.org/2000/svg" xmlns:xlink="http://www.w3.org/1999/xlink"><linearGradient id="SVGID_1_" gradientUnits="userSpaceOnUse" x1="255.5" x2="255.5" y1="420" y2="90"><stop offset="0" stop-color="#5558ff"/><stop offset="1" stop-color="#00c0ff"/></linearGradient><linearGradient id="SVGID_2_" gradientUnits="userSpaceOnUse" x1="256" x2="256" y1="481" y2="31"><stop offset="0" stop-color="#addcff"/><stop offset=".5028" stop-color="#eaf6ff"/><stop offset="1" stop-color="#eaf6ff"/></linearGradient><g><g><g><path d="m406 90h-301c-24.813 0-45 20.187-45 45v240c0 24.813 20.187 45 45 45h301c24.813 0 45-20.187 45-45v-240c0-24.813-20.187-45-45-45z" fill="url(#SVGID_1_)"/></g></g><g><g><path d="m105 31h-90c-8.284 0-15 6.716-15 15v90c0 8.284 6.716 15 15 15s15-6.716 15-15v-75h75c8.284 0 15-6.716 15-15s-6.716-15-15-15zm392 0h-91c-8.284 0-15 6.716-15 15s6.716 15 15 15h76v75c0 8.284 6.716 15 15 15s15-6.716 15-15v-90c0-8.284-6.716-15-15-15zm-392 420h-75v-75c0-8.284-6.716-15-15-15s-15 6.716-15 15v90c0 8.284 6.716 15 15 15h90c8.284 0 15-6.716 15-15s-6.716-15-15-15zm392-90c-8.284 0-15 6.716-15 15v75h-76c-8.284 0-15 6.716-15 15s6.716 15 15 15h91c8.284 0 15-6.716 15-15v-90c0-8.284-6.716-15-15-15zm-361-211c-8.284 0-15 6.716-15 15v180c0 8.284 6.716 15 15 15s15-6.716 15-15v-180c0-8.284-6.716-15-15-15zm60 0c-8.284 0-15 6.716-15 15v120c0 8.284 6.716 15 15 15s15-6.716 15-15v-120c0-8.284-6.716-15-15-15zm60 0c-8.284 0-15 6.716-15 15v120c0 8.284 6.716 15 15 15s15-6.716 15-15v-120c0-8.284-6.716-15-15-15zm60 0c-8.284 0-15 6.716-15 15v120c0 8.284 6.716 15 15 15s15-6.716 15-15v-120c0-8.284-6.716-15-15-15zm75 15c0-8.284-6.716-15-15-15s-15 6.716-15 15v180c0 8.284 6.716 15 15 15s15-6.716 15-15zm-135 165.428c-8.284 0-15 6.716-15 15s6.716 15 15 15 15-6.716 15-15-6.716-15-15-15zm60 0c-8.284 0-15 6.716-15 15s6.716 15 15 15 15-6.716 15-15-6.716-15-15-15zm-120 0c-8.284 0-15 6.716-15 15s6.716 15 15 15 15-6.716 15-15-6.716-15-15-15z" fill="url(#SVGID_2_)"/></g></g></g></svg>