<svg id="Capa_1" enable-background="new 0 0 512 512" height="512" viewBox="0 0 512 512" width="512" xmlns="http://www.w3.org/2000/svg" xmlns:xlink="http://www.w3.org/1999/xlink"><linearGradient id="SVGID_1_" gradientUnits="userSpaceOnUse" x1="271" x2="271" y1="467.5" y2="29.879"><stop offset="0" stop-color="#a93aff"/><stop offset="1" stop-color="#ff81ff"/></linearGradient><linearGradient id="SVGID_2_" gradientUnits="userSpaceOnUse" x1="256" x2="256" y1="512" y2="0"><stop offset="0" stop-color="#ffbef9"/><stop offset="1" stop-color="#fff1ff"/></linearGradient><g><g><g><path d="m60 467.5h90v-437.621h-90zm407-257.5h-76l-16 33-61 1-13-34h-76c-8.284 0-15 6.716-15 15v242.5h272v-242.5c0-8.284-6.716-15-15-15z" fill="url(#SVGID_1_)"/></g></g><g><g><path d="m310.26 328.858c5.604 2.322 12.058 1.039 16.347-3.251l19.393-19.394 19.394 19.394c4.29 4.29 10.741 5.573 16.347 3.251 5.605-2.322 9.26-7.791 9.26-13.858v-105h-90v105c-.001 6.067 3.653 11.537 9.259 13.858zm186.74 123.642h-482c-8.284 0-15 6.716-15 15v29.5c0 8.284 6.716 15 15 15h482c8.284 0 15-6.716 15-15v-29.5c0-8.284-6.716-15-15-15zm-392-242.5c57.897 0 105-47.103 105-105s-47.103-105-105-105-105 47.103-105 105 47.103 105 105 105zm-15-135c0-8.284 6.716-15 15-15s15 6.716 15 15v30c0 8.284-6.716 15-15 15s-15-6.716-15-15z" fill="url(#SVGID_2_)"/></g></g></g></svg>