<svg id="Capa_1" enable-background="new 0 0 512 512" height="512" viewBox="0 0 512 512" width="512" xmlns="http://www.w3.org/2000/svg" xmlns:xlink="http://www.w3.org/1999/xlink"><linearGradient id="SVGID_1_" gradientUnits="userSpaceOnUse" x1="256" x2="256" y1="496.5" y2="15.5"><stop offset="0" stop-color="#fd5900"/><stop offset="1" stop-color="#ffde00"/></linearGradient><linearGradient id="SVGID_2_" gradientUnits="userSpaceOnUse" x1="256" x2="256" y1="436.5" y2="15.5"><stop offset="0" stop-color="#ffe59a"/><stop offset="1" stop-color="#ffffd5"/></linearGradient><g><g><g><path d="m497 346.5h-46l-15 30-15-30h-30l-15 30-15-30h-30l-15 30-15-30h-30l-15 30-15-30h-30l-15 30-15-30h-30l-15 30-15-30h-30l-15 30-15-30h-46c-8.284 0-15 6.716-15 15v120c0 8.284 6.716 15 15 15h482c8.284 0 15-6.716 15-15v-120c0-8.284-6.716-15-15-15zm-462.606-34.394c5.857 5.857 15.355 5.858 21.213 0s5.858-15.355 0-21.213l-4.393-4.394h409.574l-4.393 4.394c-5.858 5.858-5.858 15.355 0 21.213 5.857 5.857 15.355 5.858 21.213 0l30-30c5.858-5.858 5.858-15.355 0-21.213l-30-30c-5.857-5.858-15.355-5.858-21.213 0s-5.858 15.355 0 21.213l4.393 4.394h-409.575l4.393-4.394c5.858-5.858 5.858-15.355 0-21.213-5.857-5.858-15.355-5.858-21.213 0l-30 30c-5.858 5.858-5.858 15.355 0 21.213zm131.606-85.606h180c8.284 0 15-6.716 15-15v-181c0-8.284-6.716-15-15-15h-45l-40 23h-27l-23-23h-45c-8.284 0-15 6.716-15 15v181c0 8.284 6.716 15 15 15z" fill="url(#SVGID_1_)"/></g></g><g><g><path d="m61 391.5c0 8.284 6.716 15 15 15s15-6.716 15-15v-45h-30zm60 30c0 8.284 6.716 15 15 15s15-6.716 15-15v-75h-30zm60-30c0 8.284 6.716 15 15 15s15-6.716 15-15v-45h-30zm60 30c0 8.284 6.716 15 15 15s15-6.716 15-15v-75h-30zm60-30c0 8.284 6.716 15 15 15s15-6.716 15-15v-45h-30zm60 30c0 8.284 6.716 15 15 15s15-6.716 15-15v-75h-30zm60-75v45c0 8.284 6.716 15 15 15s15-6.716 15-15v-45zm-120-331h-90v106c0 5.199 2.692 10.027 7.114 12.76s9.945 2.98 14.594.657l23.292-11.646 23.292 11.646c4.658 2.329 10.18 2.071 14.594-.657 4.422-2.733 7.114-7.561 7.114-12.76z" fill="url(#SVGID_2_)"/></g></g></g></svg>