<svg id="Capa_1" enable-background="new 0 0 511.843 511.843" height="512" viewBox="0 0 511.843 511.843" width="512" xmlns="http://www.w3.org/2000/svg" xmlns:xlink="http://www.w3.org/1999/xlink"><linearGradient id="SVGID_1_" gradientUnits="userSpaceOnUse" x1="255.921" x2="255.921" y1="429.843" y2="0"><stop offset="0" stop-color="#fd3a84"/><stop offset="1" stop-color="#ffa68d"/></linearGradient><linearGradient id="SVGID_2_" gradientUnits="userSpaceOnUse" x1="255.682" x2="255.682" y1="511.843" y2="75.843"><stop offset="0" stop-color="#ffc2cc"/><stop offset="1" stop-color="#fff2f4"/></linearGradient><g><g><g><path d="m450.442 215.54c-1.888-3.567-1.888-7.827-.001-11.393l6.3-11.901c9.693-18.311 4.426-41.389-12.252-53.681l-10.839-7.989c-3.249-2.395-5.097-6.232-4.943-10.263l.513-13.457c.788-20.702-13.971-39.209-34.33-43.048l-13.233-2.495c-3.966-.748-7.295-3.403-8.906-7.103l-5.377-12.346c-8.273-18.994-29.598-29.267-49.608-23.89l-13.005 3.494c-3.896 1.046-8.05.099-11.106-2.535l-10.201-8.791c-15.693-13.522-39.365-13.522-55.06 0 0 0-10.202 8.791-10.202 8.791-3.057 2.634-7.208 3.581-11.105 2.535l-13.005-3.494c-20.011-5.375-41.335 4.896-49.608 23.89l-5.378 12.347c-1.611 3.699-4.94 6.354-8.906 7.102l-13.233 2.495c-20.359 3.839-35.118 22.346-34.33 43.048l.512 13.457c.154 4.032-1.694 7.869-4.942 10.263l-10.84 7.99c-16.677 12.292-21.944 35.37-12.252 53.681l6.3 11.901c1.888 3.566 1.888 7.825 0 11.392l-6.3 11.901c-9.692 18.31-4.425 41.388 12.252 53.681l10.839 7.989c3.249 2.395 5.096 6.231 4.942 10.265l-.512 13.456c-.788 20.703 13.971 39.21 34.33 43.048l6.942 1.309 1.025 32.055 74 37.601 32.097-15.225c7.361 5.374 16.13 8.068 24.903 8.068 8.639 0 17.276-2.607 24.566-7.817l26.434 17.973 74-37.752 6.593-34.822 7.375-1.391c20.359-3.838 35.118-22.345 34.33-43.049l-.513-13.455c-.153-4.033 1.694-7.87 4.942-10.264l10.84-7.989c16.678-12.292 21.945-35.37 12.252-53.681z" fill="url(#SVGID_1_)"/></g></g><g><g><path d="m218.19 400.753c-3.056-2.634-7.208-3.58-11.106-2.535l-13.005 3.493c-20.01 5.377-41.335-4.896-49.608-23.89l-5.377-12.345c-1.612-3.701-4.941-6.355-8.907-7.104l-6.291-1.186-47.81 86.393c-2.655 4.798-2.48 10.662.455 15.293s8.167 7.296 13.635 6.939l43.905-2.831 19.573 40.402c2.447 5.051 7.509 8.313 13.12 8.456.127.003.254.005.381.005 5.465 0 10.511-2.977 13.149-7.785l50.713-92.44c-.896-.654-1.775-1.341-2.627-2.075zm217.088 42.827-47.764-86.312-5.858 1.104c-3.965.748-7.295 3.403-8.905 7.103l-5.378 12.346c-6.793 15.596-22.391 25.311-38.829 25.312-3.581 0-7.199-.461-10.779-1.422l-13.005-3.493c-3.896-1.046-8.05-.099-11.105 2.535l-10.202 8.79c-.959.827-1.949 1.601-2.964 2.326l50.573 92.188c2.639 4.81 7.685 7.786 13.149 7.786.127 0 .255-.001.382-.005 5.61-.142 10.672-3.404 13.119-8.455l19.574-40.402 43.904 2.831c5.457.357 10.699-2.307 13.635-6.939 2.933-4.632 3.108-10.495.453-15.293zm-44.357-232.737c0-74.439-60.561-135-135-135s-135 60.561-135 135 60.561 135 135 135 135-60.561 135-135zm-180-60c8.284 0 15 6.716 15 15s-6.716 15-15 15-15-6.716-15-15 6.716-15 15-15zm13.18 113.033c-5.857 5.857-15.355 5.858-21.213 0s-5.858-15.355 0-21.213l84.854-84.853c5.857-5.857 15.355-5.858 21.213 0s5.858 15.355 0 21.213zm76.82 6.967c-8.284 0-15-6.716-15-15s6.716-15 15-15 15 6.716 15 15-6.715 15-15 15z" fill="url(#SVGID_2_)"/></g></g></g></svg>