<svg id="Capa_1" enable-background="new 0 0 512 512" height="512" viewBox="0 0 512 512" width="512" xmlns="http://www.w3.org/2000/svg" xmlns:xlink="http://www.w3.org/1999/xlink"><linearGradient id="SVGID_1_" gradientUnits="userSpaceOnUse" x1="256" x2="256" y1="399" y2="61"><stop offset="0" stop-color="#00b59c"/><stop offset="1" stop-color="#9cffac"/></linearGradient><linearGradient id="SVGID_2_" gradientUnits="userSpaceOnUse" x1="256" x2="256" y1="451" y2="121"><stop offset="0" stop-color="#c3ffe8"/><stop offset=".9973" stop-color="#f0fff4"/></linearGradient><g><g><g><path d="m497 61h-482c-8.284 0-15 6.716-15 15v300c0 8.284 6.716 23 15 23h482c8.284 0 15-14.716 15-23v-300c0-8.284-6.716-15-15-15z" fill="url(#SVGID_1_)"/></g></g><g><g><path d="m75 301c8.271 0 15 6.729 15 15 0 8.284 6.716 15 15 15h302c8.284 0 15-6.716 15-15 0-8.271 6.729-15 15-15 8.284 0 15-6.716 15-15v-120c0-8.284-6.716-15-15-15-8.271 0-15-6.729-15-15 0-8.284-6.716-15-15-15h-302c-8.284 0-15 6.716-15 15 0 8.271-6.729 15-15 15-8.284 0-15 6.716-15 15v120c0 8.284 6.716 15 15 15zm272-90h30c8.284 0 15 6.716 15 15s-6.716 15-15 15h-30c-8.284 0-15-6.716-15-15s6.716-15 15-15zm-91-30c24.813 0 45 20.187 45 45s-20.187 45-45 45-45-20.187-45-45 20.187-45 45-45zm-121 30h30c8.284 0 15 6.716 15 15s-6.716 15-15 15h-30c-8.284 0-15-6.716-15-15s6.716-15 15-15zm362 180h-482c-8.284 0-15-6.716-15-15v60c0 8.284 6.716 15 15 15h482c8.284 0 15-6.716 15-15v-60c0 8.284-6.716 15-15 15z" fill="url(#SVGID_2_)"/></g></g></g></svg>