<svg id="Capa_1" enable-background="new 0 0 512 512" height="512" viewBox="0 0 512 512" width="512" xmlns="http://www.w3.org/2000/svg" xmlns:xlink="http://www.w3.org/1999/xlink"><linearGradient id="SVGID_1_" gradientUnits="userSpaceOnUse" x1="284.5" x2="284.5" y1="466.212" y2="45.788"><stop offset="0" stop-color="#addcff"/><stop offset=".5028" stop-color="#eaf6ff"/><stop offset="1" stop-color="#eaf6ff"/></linearGradient><linearGradient id="SVGID_2_" gradientUnits="userSpaceOnUse" x1="90.5" x2="90.5" y1="465.788" y2="195.788"><stop offset="0" stop-color="#5558ff"/><stop offset="1" stop-color="#00c0ff"/></linearGradient><g><g><g><path d="m512 293.288c0-12.427-10.074-22.5-22.5-22.5h-37.5c-8.284 0-15-6.716-15-15 0-8.286 6.716-15 15-15h37.5c12.426 0 22.5-10.074 22.5-22.5 0-12.427-10.074-22.5-22.5-22.5h-128.5v-105c0-24.853-20.147-45-45-45-8.284 0-15 6.714-15 15v82.397l-58.359 38.906c-15.571 10.371-26.206 26.25-30.044 44.121h-155.597v210h163.023c21.563 19.395 49.16 30 78.398 30 3.036-.009 173.399-.425 161.078-.425 12.426 0 22.5-10.074 22.5-22.5 0-12.427-10.074-22.5-22.5-22.5h-22.499c-8.284 0-15-6.716-15-15 0-8.286 6.716-15 15-15h52.5c12.426 0 22.5-10.074 22.5-22.5 0-12.427-10.074-22.5-22.5-22.5h-45c-8.284 0-15-6.716-15-15 0-8.286 6.716-15 15-15h45c12.426.001 22.5-10.074 22.5-22.499z" fill="url(#SVGID_1_)"/></g></g><g><g><path d="m166 195.788h-151c-8.284 0-15 6.716-15 15v240c0 8.284 6.716 15 15 15h151c8.284 0 15-6.716 15-15v-240c0-8.285-6.716-15-15-15zm-60 90c-8.284 0-15-6.716-15-15s6.716-15 15-15 15 6.716 15 15-6.716 15-15 15z" fill="url(#SVGID_2_)"/></g></g></g></svg>