<svg id="Capa_1" enable-background="new 0 0 512 512" height="512" viewBox="0 0 512 512" width="512" xmlns="http://www.w3.org/2000/svg" xmlns:xlink="http://www.w3.org/1999/xlink"><linearGradient id="SVGID_1_" gradientUnits="userSpaceOnUse" x1="256" x2="256" y1="481" y2="31"><stop offset="0" stop-color="#fd5900"/><stop offset="1" stop-color="#ffde00"/></linearGradient><linearGradient id="SVGID_2_" gradientUnits="userSpaceOnUse" x1="256" x2="256" y1="391" y2="31"><stop offset="0" stop-color="#ffe59a"/><stop offset="1" stop-color="#ffffd5"/></linearGradient><g><g><g><path d="m497 31h-166l-14 37h-119l-17-37h-166c-8.284 0-15 6.716-15 15v420c0 8.284 6.716 15 15 15h482c8.284 0 15-6.716 15-15v-420c0-8.284-6.716-15-15-15z" fill="url(#SVGID_1_)"/></g></g><g><g><path d="m188.114 178.76c4.422 2.733 9.944 2.982 14.594.657l53.292-26.646 53.292 26.646c4.659 2.33 10.181 2.071 14.594-.657 4.422-2.733 7.114-7.561 7.114-12.76v-135h-150v135c0 5.199 2.692 10.027 7.114 12.76zm127.886 62.24c-8.284 0-15 6.716-15 15s6.716 15 15 15c24.813 0 45 20.187 45 45s-20.187 45-45 45h-120c-24.813 0-45-20.187-45-45s20.187-45 45-45h23.787l-4.394 4.394c-5.858 5.858-5.858 15.355 0 21.213 5.857 5.857 15.355 5.858 21.213 0l30-30c5.858-5.858 5.858-15.355 0-21.213l-30-30c-5.857-5.858-15.355-5.858-21.213 0s-5.858 15.355 0 21.213l4.394 4.394h-23.787c-41.355 0-75 33.645-75 75s33.645 75 75 75h120c41.355 0 75-33.645 75-75s-33.645-75.001-75-75.001z" fill="url(#SVGID_2_)"/></g></g></g></svg>