<svg id="Capa_1" enable-background="new 0 0 512.201 512.201" height="512" viewBox="0 0 512.201 512.201" width="512" xmlns="http://www.w3.org/2000/svg" xmlns:xlink="http://www.w3.org/1999/xlink"><linearGradient id="SVGID_1_" gradientUnits="userSpaceOnUse" x1="256.198" x2="256.198" y1="496.101" y2="16.101"><stop offset="0" stop-color="#fd3a84"/><stop offset="1" stop-color="#ffa68d"/></linearGradient><linearGradient id="SVGID_2_" gradientUnits="userSpaceOnUse" x1="256.101" x2="256.101" y1="496.101" y2="76.101"><stop offset="0" stop-color="#ffc2cc"/><stop offset="1" stop-color="#fff2f4"/></linearGradient><g><g><g><path d="m482.198 286.101v-176c0-8.284-6.716-15-15-15h-15v-64c0-8.284-6.716-15-15-15h-362c-8.284 0-15 6.716-15 15v64h-15c-8.284 0-15 6.716-15 15v371c0 8.284 6.716 15 15 15h45l36-26h72l43 26h226c8.284 0 15-6.716 15-15v-75l-23-35v-54z" fill="url(#SVGID_1_)"/></g></g><g><g><path d="m271.198 301.101v90c0 8.284 6.716 15 15 15h196v-120h-196c-8.284 0-15 6.715-15 15zm-45-15h-121c-8.284 0-15 6.716-15 15v195h151v-90h-45c-8.284 0-15-6.716-15-15s6.716-15 15-15h45v-75c0-8.285-6.716-15-15-15zm197.072-210h-334.687c-55.258 0-87.768 32.129-88.57 67.72-.637 28.261 23.372 51.855 51.914 51.855 27.87 0 50.444-22.381 50.914-50.142h.172c.471 27.761 23.042 50.142 50.912 50.142 27.872 0 50.444-22.381 50.914-50.142h.172c.471 27.761 23.042 50.142 50.914 50.142s50.444-22.381 50.914-50.142h.172c.471 27.761 23.042 50.142 50.914 50.142 27.87 0 50.442-22.381 50.912-50.142h.172c.471 27.761 23.044 50.142 50.914 50.142 28.171 0 51.97-22.842 52.272-50.209.395-35.65-32.547-69.366-88.925-69.366z" fill="url(#SVGID_2_)"/></g></g></g></svg>