<svg id="Capa_1" enable-background="new 0 0 512.201 512.201" height="512" viewBox="0 0 512.201 512.201" width="512" xmlns="http://www.w3.org/2000/svg" xmlns:xlink="http://www.w3.org/1999/xlink"><linearGradient id="SVGID_1_" gradientUnits="userSpaceOnUse" x1="256.198" x2="256.198" y1="416.101" y2="92.101"><stop offset="0" stop-color="#5558ff"/><stop offset="1" stop-color="#00c0ff"/></linearGradient><linearGradient id="SVGID_2_" gradientUnits="userSpaceOnUse" x1="256.101" x2="256.101" y1="466.101" y2="46.101"><stop offset="0" stop-color="#addcff"/><stop offset=".5028" stop-color="#eaf6ff"/><stop offset="1" stop-color="#eaf6ff"/></linearGradient><g><g><g><path d="m30.198 92.101h452v324h-452z" fill="url(#SVGID_1_)"/></g></g><g><g><path d="m497.198 376.101h-97.28c-3.984 0-7.793 1.582-10.605 4.395l-25.605 25.605h-215.019l-25.605-25.605c-2.813-2.813-6.621-4.395-10.605-4.395h-97.28c-4.497 0-8.774 2.021-11.616 5.508-2.856 3.486-3.984 8.071-3.076 12.495 8.511 41.719 45.586 71.997 88.184 71.997h335.018c42.598 0 79.673-30.278 88.184-71.997.908-4.424-.22-9.009-3.076-12.495-2.845-3.487-7.122-5.508-11.619-5.508zm-391-150c-8.284 0-15 6.716-15 15v60c0 8.284 6.716 15 15 15h90c8.284 0 15-6.716 15-15v-60c0-8.284-6.716-15-15-15zm301 0h-151c-8.284 0-15 6.716-15 15s6.716 15 15 15h151c8.284 0 15-6.716 15-15s-6.716-15-15-15zm0 60h-151c-8.284 0-15 6.716-15 15s6.716 15 15 15h151c8.284 0 15-6.716 15-15s-6.716-15-15-15zm-355.271-120.425c27.87 0 50.444-22.381 50.914-50.142h.172c.471 27.761 23.042 50.142 50.912 50.142 27.872 0 50.444-22.381 50.914-50.142h.172c.471 27.761 23.042 50.142 50.914 50.142s50.444-22.381 50.914-50.142h.172c.471 27.761 23.042 50.142 50.914 50.142 27.87 0 50.442-22.381 50.912-50.142h.172c.471 27.761 23.044 50.142 50.914 50.142 28.171 0 51.97-22.842 52.272-50.209.392-35.649-32.549-69.366-88.928-69.366h-334.684c-55.258 0-87.768 32.129-88.57 67.72-.638 28.26 23.371 51.855 51.914 51.855z" fill="url(#SVGID_2_)"/></g></g></g></svg>