<svg id="Capa_1" enable-background="new 0 0 512 512" height="512" viewBox="0 0 512 512" width="512" xmlns="http://www.w3.org/2000/svg" xmlns:xlink="http://www.w3.org/1999/xlink"><linearGradient id="SVGID_1_" gradientUnits="userSpaceOnUse" x1="259" x2="259" y1="512" y2="0"><stop offset="0" stop-color="#fd5900"/><stop offset="1" stop-color="#ffde00"/></linearGradient><linearGradient id="SVGID_2_" gradientUnits="userSpaceOnUse" x1="256" x2="256" y1="449" y2="30"><stop offset="0" stop-color="#ffe59a"/><stop offset="1" stop-color="#ffffd5"/></linearGradient><g><g><g><path d="m384.04 150 12.46-13-36.529-17-48.137-60 12.46-13-36.529-17-19.565-24.387c-2.847-3.548-7.151-5.613-11.7-5.613s-8.853 2.065-11.7 5.613l-19.565 24.387-17.735 10.888-6.334 19.112-48.137 60-22.639 17-1.43 13-4.16 5.185c-2.136 2.662-3.3 5.974-3.3 9.387v332.428c0 8.284 6.716 15 15 15h240c8.284 0 15-6.716 15-15v-332.428c0-3.413-1.164-6.725-3.3-9.387z" fill="url(#SVGID_1_)"/></g></g><g><g><path d="m390.5 30h-102.735l24.069 30h78.666c16.542 0 30 13.458 30 30s-13.458 30-30 30h-30.529l24.069 30h6.46c33.084 0 60-26.916 60-60s-26.916-60-60-60zm-150 135.146c0 8.284 6.716 15 15 15s15-6.716 15-15v-60c0-8.284-6.716-15-15-15s-15 6.716-15 15v14.854h-119c-16.542 0-30-13.458-30-30s13.458-30 30-30h79.666l24.069-30h-103.735c-33.084 0-60 26.916-60 60s26.916 60 60 60h119zm17 133.854c8.271 0 15 6.729 15 15 0 8.284 6.716 15 15 15s15-6.716 15-15c0-19.555-12.541-36.228-30-42.42v-17.58c0-8.284-6.716-15-15-15s-15 6.716-15 15v17.58c-17.459 6.192-30 22.865-30 42.42 0 24.813 20.187 45 45 45 8.271 0 15 6.729 15 15s-6.729 15-15 15-15-6.729-15-15c0-8.284-6.716-15-15-15s-15 6.716-15 15c0 19.555 12.541 36.228 30 42.42v17.58c0 8.284 6.716 15 15 15s15-6.716 15-15v-17.58c17.459-6.192 30-22.865 30-42.42 0-24.813-20.187-45-45-45-8.271 0-15-6.729-15-15s6.729-15 15-15z" fill="url(#SVGID_2_)"/></g></g></g></svg>