<svg id="Capa_1" enable-background="new 0 0 512.003 512.003" height="512" viewBox="0 0 512.003 512.003" width="512" xmlns="http://www.w3.org/2000/svg" xmlns:xlink="http://www.w3.org/1999/xlink"><linearGradient id="SVGID_1_" gradientUnits="userSpaceOnUse" x1="256.001" x2="256.001" y1="512.003" y2="120.003"><stop offset="0" stop-color="#fd3a84"/><stop offset="1" stop-color="#ffa68d"/></linearGradient><linearGradient id="SVGID_2_" gradientUnits="userSpaceOnUse" x1="256.001" x2="256.001" y1="512.003" y2="0"><stop offset="0" stop-color="#ffc2cc"/><stop offset="1" stop-color="#fff2f4"/></linearGradient><g><g><g><path d="m466.001 120.003h-165.05l-23.949 15h-34l-31.949-15h-165.052c-8.284 0-15 6.716-15 15v362c0 8.284 6.716 15 15 15h165l24-17h37l29 17h165c8.284 0 15-6.716 15-15v-362c0-8.284-6.715-15-15-15z" fill="url(#SVGID_1_)"/></g></g><g><g><path d="m450.808 72.6c-.772-4.759-3.786-8.857-8.099-11.014l-120-60c-7.302-3.65-16.188-.791-19.986 6.439-1.615 3.074-1.709 5.518-1.828 8.612-.911 23.744-3.882 44.407-8.829 61.415-8.099 27.836-20.232 41.951-36.064 41.951s-27.966-14.114-36.064-41.951c-4.947-17.008-7.918-37.67-8.829-61.415-.119-3.094-.213-5.538-1.828-8.612-3.798-7.23-12.685-10.091-19.986-6.439l-120 60c-4.313 2.156-7.326 6.254-8.099 11.014s.791 9.6 4.2 13.009c2.292 2.292 50.609 49.506 145.606 61.591v364.803h90v-364.803c94.997-12.084 143.315-59.299 145.606-61.591 3.409-3.409 4.973-8.25 4.2-13.009z" fill="url(#SVGID_2_)"/></g></g></g></svg>