<svg id="Capa_1" enable-background="new 0 0 512 512" height="512" viewBox="0 0 512 512" width="512" xmlns="http://www.w3.org/2000/svg" xmlns:xlink="http://www.w3.org/1999/xlink"><linearGradient id="SVGID_1_" gradientUnits="userSpaceOnUse" x1="256" x2="256" y1="421" y2="181"><stop offset="0" stop-color="#5558ff"/><stop offset="1" stop-color="#00c0ff"/></linearGradient><linearGradient id="SVGID_2_" gradientUnits="userSpaceOnUse" x1="256" x2="256" y1="451" y2="61"><stop offset="0" stop-color="#addcff"/><stop offset=".5028" stop-color="#eaf6ff"/><stop offset="1" stop-color="#eaf6ff"/></linearGradient><g><g><g><path d="m407 181h-371l-36 150v75c0 8.284 6.716 15 15 15h482c8.284 0 15-6.716 15-15v-120z" fill="url(#SVGID_1_)"/></g></g><g><g><path d="m422 286h90c0-1.612-.26-3.214-.77-4.743l-30-90c-2.042-6.126-7.774-10.257-14.23-10.257h-60v90c0 8.284 6.716 15 15 15zm-15 75c-24.813 0-45 20.187-45 45s20.187 45 45 45 45-20.187 45-45-20.187-45-45-45zm-302 0c-24.813 0-45 20.187-45 45s20.187 45 45 45 45-20.187 45-45-20.187-45-45-45zm212-300h-302c-8.284 0-15 6.716-15 15v255h317c8.284 0 15-6.716 15-15v-240c0-8.284-6.716-15-15-15z" fill="url(#SVGID_2_)"/></g></g></g></svg>