<svg id="Capa_1" enable-background="new 0 0 512.002 512.002" height="512" viewBox="0 0 512.002 512.002" width="512" xmlns="http://www.w3.org/2000/svg" xmlns:xlink="http://www.w3.org/1999/xlink"><linearGradient id="SVGID_1_" gradientUnits="userSpaceOnUse" x1="256.001" x2="256.001" y1="512.001" y2=".001"><stop offset="0" stop-color="#fd3a84"/><stop offset="1" stop-color="#ffa68d"/></linearGradient><linearGradient id="SVGID_2_" gradientUnits="userSpaceOnUse" x1="226.501" x2="226.501" y1="391.001" y2="60.001"><stop offset="0" stop-color="#ffc2cc"/><stop offset="1" stop-color="#fff2f4"/></linearGradient><g><g><g><path d="m121 211.001c-66.72 0-121 53.832-121 120 0 80.961 106.688 173.482 111.229 177.381 2.811 2.413 6.291 3.619 9.771 3.619 3.503 0 7.006-1.222 9.824-3.665 4.499-3.898 110.176-96.416 110.176-177.335 0-66.168-53.832-120-120-120zm256.002 0c4.165 0 8.143-1.732 10.98-4.781 29.605-31.812 64.02-96.061 64.02-131.219 0-41.355-33.645-75-75-75s-75 33.645-75 75c0 35.158 34.414 99.407 64.02 131.219 2.837 3.049 6.815 4.781 10.98 4.781zm-62.756 147.325c7.925 2.453 16.318-1.993 18.764-9.895 2.449-7.914-1.98-16.315-9.895-18.764-12.628-3.908-21.113-15.428-21.113-28.647.001-.535.014-1.067.04-1.596.418-8.274-5.95-15.32-14.224-15.738-8.248-.425-15.32 5.95-15.738 14.224-.051 1.008-.077 2.042-.079 3.091.001 26.468 16.978 49.505 42.245 57.325zm17.756-117.325c-3.936 0-7.875.385-11.709 1.145-8.127 1.61-13.409 9.503-11.799 17.629 1.61 8.125 9.501 13.409 17.629 11.798 1.919-.38 3.896-.573 5.879-.573h50.67c8.284 0 15-6.716 15-15s-6.716-15-15-15h-50.67zm135 0h-24.807c-8.284 0-15 6.716-15 15s6.716 15 15 15h24.807c17.846 0 34.02-10.556 41.205-26.894 3.335-7.583-.108-16.434-7.691-19.77s-16.434.107-19.77 7.691c-2.397 5.451-7.792 8.973-13.744 8.973zm-45-45c0 8.284 6.716 15 15 15h30c8.284 0 15-6.716 15-15s-6.716-15-15-15h-30c-8.284 0-15 6.716-15 15zm75.743 176.371c-4.482-6.967-13.762-8.982-20.73-4.502-6.968 4.481-8.983 13.763-4.502 20.73 6.209 9.653 9.49 20.857 9.489 32.401 0 4.475-.493 8.95-1.465 13.3-2.095 9.38 5.053 18.273 14.653 18.273 6.87 0 13.065-4.75 14.626-11.733 1.45-6.494 2.186-13.169 2.186-19.839.001-17.31-4.929-34.127-14.257-48.63zm-43.891 100.201c-9.557 6.168-20.571 9.428-31.852 9.428h-17.234c-8.284 0-15 6.716-15 15s6.716 15 15 15h17.234c17.064 0 33.704-4.918 48.119-14.222 6.961-4.493 8.962-13.777 4.469-20.737-4.493-6.961-13.778-8.961-20.736-4.469zm-19.512-110.304c8.09 1.69 16.052-3.491 17.749-11.618 1.693-8.109-3.509-16.056-11.618-17.749-6.04-1.261-12.254-1.901-18.471-1.901h-44.003c-8.284 0-15 6.716-15 15s6.716 15 15 15h44.003c4.16 0 8.311.426 12.34 1.268zm-208.34 119.732h-30c-8.284 0-15 6.716-15 15s6.716 15 15 15h30c8.284 0 15-6.716 15-15s-6.716-15-15-15zm119.242 0h-59.523c-8.284 0-15 6.716-15 15s6.716 15 15 15h59.523c8.284 0 15-6.716 15-15s-6.716-15-15-15z" fill="url(#SVGID_1_)"/></g></g><g><g><path d="m121 271.001c-33.084 0-60 26.916-60 60s26.916 60 60 60 60-26.916 60-60-26.916-60-60-60zm256.002-211c-8.284 0-15 6.716-15 15s6.716 15 15 15 15-6.716 15-15-6.716-15-15-15z" fill="url(#SVGID_2_)"/></g></g></g></svg>