<svg id="Capa_1" enable-background="new 0 0 512 512" height="512" viewBox="0 0 512 512" width="512" xmlns="http://www.w3.org/2000/svg" xmlns:xlink="http://www.w3.org/1999/xlink"><linearGradient id="SVGID_1_" gradientUnits="userSpaceOnUse" x1="256" x2="256" y1="512" y2="0"><stop offset="0" stop-color="#fd5900"/><stop offset="1" stop-color="#ffde00"/></linearGradient><linearGradient id="SVGID_2_" gradientUnits="userSpaceOnUse" x1="301" x2="301" y1="270" y2="0"><stop offset="0" stop-color="#ffe59a"/><stop offset="1" stop-color="#ffffd5"/></linearGradient><g><path d="m508.961 155.948c-2.835-3.746-7.263-5.948-11.961-5.948h-76.936c.616-4.915.936-9.921.936-15 0-66.168-53.832-120-120-120s-120 53.832-120 120c0 5.079.32 10.085.936 15h-62.926l-19.589-137.122c-1.056-7.389-7.385-12.878-14.85-12.878h-69.571c-8.284 0-15 6.716-15 15s6.716 15 15 15h56.562c.015.105 42.208 297.452 42.229 297.606 2.458 17.197 10.82 32.978 23.599 44.685-10.004 8.26-16.39 20.753-16.39 34.709 0 20.723 14.084 38.209 33.181 43.414-2.045 5.137-3.181 10.73-3.181 16.586 0 24.813 20.187 45 45 45s45-20.187 45-45c0-5.258-.915-10.305-2.58-15h125.16c-1.665 4.695-2.58 9.742-2.58 15 0 24.813 20.187 45 45 45s45-20.187 45-45-20.187-45-45-45h-240c-8.271 0-15-6.729-15-15s6.729-15 15-15h224.742c33.897 0 63.964-22.368 73.127-54.441l47.566-168.483c1.277-4.522.362-9.381-2.474-13.128z" fill="url(#SVGID_1_)"/><g><g><path d="m301 0c-74.439 0-135 60.561-135 135s60.561 135 135 135 135-60.561 135-135-60.561-135-135-135zm-1 120c24.813 0 45 20.187 45 45 0 19.555-12.541 36.228-30 42.42v17.58c0 8.284-6.716 15-15 15s-15-6.716-15-15v-17.58c-17.459-6.192-30-22.865-30-42.42 0-8.284 6.716-15 15-15s15 6.716 15 15c0 8.271 6.729 15 15 15s15-6.729 15-15-6.729-15-15-15c-24.813 0-45-20.187-45-45 0-19.555 12.541-36.228 30-42.42v-17.58c0-8.284 6.716-15 15-15s15 6.716 15 15v17.58c17.459 6.192 30 22.865 30 42.42 0 8.284-6.716 15-15 15s-15-6.716-15-15c0-8.271-6.729-15-15-15s-15 6.729-15 15 6.729 15 15 15z" fill="url(#SVGID_2_)"/></g></g></g></svg>