<svg id="Capa_1" enable-background="new 0 0 512 512" height="512" viewBox="0 0 512 512" width="512" xmlns="http://www.w3.org/2000/svg" xmlns:xlink="http://www.w3.org/1999/xlink"><linearGradient id="SVGID_1_" gradientUnits="userSpaceOnUse" x1="256" x2="256" y1="512" y2="0"><stop offset="0" stop-color="#fd5900"/><stop offset="1" stop-color="#ffde00"/></linearGradient><linearGradient id="SVGID_2_" gradientUnits="userSpaceOnUse" x1="256" x2="256" y1="451" y2="121"><stop offset="0" stop-color="#ffe59a"/><stop offset="1" stop-color="#ffffd5"/></linearGradient><g><g><g><path d="m345.65 202.962c-22.893-20.96-41.359-37.884-44.245-61.015 27.092-24.668 59.595-63.812 59.595-126.947 0-8.284-6.716-15-15-15h-30c-24.508 0-46.305 11.818-60 30.052-13.695-18.234-35.492-30.052-60-30.052h-30c-8.284 0-15 6.716-15 15 0 63.134 32.503 102.278 59.595 126.947-2.886 23.131-21.352 40.055-44.245 61.015-33.571 30.736-75.35 68.988-75.35 142.61 0 90.171 72.828 166.428 165 166.428 90.007 0 165-74.072 165-166.428 0-73.622-41.779-111.874-75.35-142.61z" fill="url(#SVGID_1_)"/></g></g><g><g><path d="m256 301c8.271 0 15 6.729 15 15 0 8.284 6.716 15 15 15s15-6.716 15-15c0-19.555-12.541-36.228-30-42.42v-17.58c0-8.284-6.716-15-15-15s-15 6.716-15 15v17.58c-17.459 6.192-30 22.865-30 42.42 0 24.813 20.187 45 45 45 8.271 0 15 6.729 15 15s-6.729 15-15 15-15-6.729-15-15c0-8.284-6.716-15-15-15s-15 6.716-15 15c0 19.555 12.541 36.228 30 42.42v17.58c0 8.284 6.716 15 15 15s15-6.716 15-15v-17.58c17.459-6.192 30-22.865 30-42.42 0-24.813-20.187-45-45-45-8.271 0-15-6.729-15-15s6.729-15 15-15zm60-180h-120c-8.284 0-15 6.716-15 15s6.716 15 15 15h120c8.284 0 15-6.716 15-15s-6.716-15-15-15z" fill="url(#SVGID_2_)"/></g></g></g></svg>