<?xml version="1.0" encoding="utf-8"?>
<!-- Generator: Adobe Illustrator 24.1.0, SVG Export Plug-In . SVG Version: 6.00 Build 0)  -->
<svg version="1.1" id="Capa_1" xmlns="http://www.w3.org/2000/svg" xmlns:xlink="http://www.w3.org/1999/xlink" x="0px" y="0px"
	 viewBox="0 0 512 512" style="enable-background:new 0 0 512 512;" xml:space="preserve">
<style type="text/css">
	.st0{fill:url(#SVGID_1_);}
	.st1{fill:url(#SVGID_2_);}
</style>
<g>
	<g>
		<g>
			
				<linearGradient id="SVGID_1_" gradientUnits="userSpaceOnUse" x1="256" y1="-67.3417" x2="256" y2="512.7756" gradientTransform="matrix(1 0 0 -1 0 513.2756)">
				<stop  offset="0" style="stop-color:#FD5900"/>
				<stop  offset="1" style="stop-color:#FFDE00"/>
			</linearGradient>
			<path class="st0" d="M405.5,0.5h-300c-57.9,0-105,47.6-105,106v300c0,52.8,39.2,97.7,90,105h315c58.4,0,106-47.1,106-105v-300
				C511.5,48.3,463.4,0.5,405.5,0.5z"/>
		</g>
	</g>
	<g>
		<g>
			
				<linearGradient id="SVGID_2_" gradientUnits="userSpaceOnUse" x1="256" y1="124.4223" x2="256" y2="390.129" gradientTransform="matrix(1 0 0 -1 0 513.2756)">
				<stop  offset="0" style="stop-color:#FFE59A"/>
				<stop  offset="1" style="stop-color:#FFFFD5"/>
			</linearGradient>
			<path class="st1" d="M322.4,189.6c0-36.6-29.8-66.4-66.4-66.4s-66.4,29.8-66.4,66.4S219.4,256,256,256S322.4,226.2,322.4,189.6z
				 M256,256c-61,0-110.7,49.7-110.7,110.7c0,12.2,9.9,22.1,22.1,22.1h177.1c12.2,0,22.1-9.9,22.1-22.1C366.7,305.7,317,256,256,256
				z"/>
		</g>
	</g>
</g>
</svg>
