<?xml version="1.0" encoding="utf-8"?>
<!-- Generator: Adobe Illustrator 24.1.0, SVG Export Plug-In . SVG Version: 6.00 Build 0)  -->
<svg version="1.1" id="Capa_1" xmlns="http://www.w3.org/2000/svg" xmlns:xlink="http://www.w3.org/1999/xlink" x="0px" y="0px"
	 viewBox="0 0 512 512" style="enable-background:new 0 0 512 512;" xml:space="preserve">
<style type="text/css">
	.st0{fill:url(#SVGID_1_);}
	.st1{fill:url(#SVGID_2_);}
</style>
<g>
	<g>
		<g>
			
				<linearGradient id="SVGID_1_" gradientUnits="userSpaceOnUse" x1="256" y1="1.2756" x2="256" y2="483.2756" gradientTransform="matrix(1 0 0 -1 0 513.2756)">
				<stop  offset="0" style="stop-color:#FD5900"/>
				<stop  offset="1" style="stop-color:#FFDE00"/>
			</linearGradient>
			<path class="st0" d="M377,30H15C6.7,30,0,36.7,0,45v452c0,8.3,6.7,15,15,15h362c8.3,0,15-6.7,15-15V45C392,36.7,385.3,30,377,30z
				 M477,155h-27l-28,11v240c0,24.8,20.2,45,45,45s45-20.2,45-45V166L477,155z"/>
		</g>
	</g>
	<g>
		<g>
			
				<linearGradient id="SVGID_2_" gradientUnits="userSpaceOnUse" x1="286.5" y1="62.2756" x2="286.5" y2="513.2756" gradientTransform="matrix(1 0 0 -1 0 513.2756)">
				<stop  offset="0" style="stop-color:#FFE59A"/>
				<stop  offset="1" style="stop-color:#FFFFD5"/>
			</linearGradient>
			<path class="st1" d="M136,121H76c-8.3,0-15,6.7-15,15v60c0,8.3,6.7,15,15,15h60c8.3,0,15-6.7,15-15v-60
				C151,127.7,144.3,121,136,121z M136,241H76c-8.3,0-15,6.7-15,15v60c0,8.3,6.7,15,15,15h60c8.3,0,15-6.7,15-15v-60
				C151,247.7,144.3,241,136,241z M316,421H196c-8.3,0-15,6.7-15,15s6.7,15,15,15h120c8.3,0,15-6.7,15-15S324.3,421,316,421z
				 M316,301H196c-8.3,0-15,6.7-15,15s6.7,15,15,15h120c8.3,0,15-6.7,15-15S324.3,301,316,301z M286,391c8.3,0,15-6.7,15-15
				s-6.7-15-15-15h-30c-8.3,0-15,6.7-15,15s6.7,15,15,15H286z M286,271c8.3,0,15-6.7,15-15s-6.7-15-15-15h-30c-8.3,0-15,6.7-15,15
				s6.7,15,15,15H286z M136,361H76c-8.3,0-15,6.7-15,15v60c0,8.3,6.7,15,15,15h60c8.3,0,15-6.7,15-15v-60
				C151,367.7,144.3,361,136,361z M316,181H196c-8.3,0-15,6.7-15,15s6.7,15,15,15h120c8.3,0,15-6.7,15-15S324.3,181,316,181z
				 M256,121c-8.3,0-15,6.7-15,15s6.7,15,15,15h30c8.3,0,15-6.7,15-15s-6.7-15-15-15H256z M511.2,161.3l-30-90
				c-2-6.1-7.8-10.3-14.2-10.3s-12.2,4.1-14.2,10.3l-30,90c-0.5,1.5-0.8,3.1-0.8,4.7h90C512,164.4,511.7,162.8,511.2,161.3z
				 M181,136c0,8.3,6.7,15,15,15s15-6.7,15-15s-6.7-15-15-15S181,127.7,181,136z M196,271c8.3,0,15-6.7,15-15s-6.7-15-15-15
				s-15,6.7-15,15S187.7,271,196,271z M196,391c8.3,0,15-6.7,15-15s-6.7-15-15-15s-15,6.7-15,15S187.7,391,196,391z M121,59h150
				c8.3,0,15-6.7,15-15V30c0-16.5-13.5-30-30-30H136c-16.5,0-30,13.5-30,30v14C106,52.3,112.7,59,121,59z"/>
		</g>
	</g>
</g>
</svg>
